<svg width="40" height="40" viewBox="0 0 40 40" fill="none" xmlns="http://www.w3.org/2000/svg">
<rect width="40" height="40" rx="20" fill="#2F91F8"/>
<rect width="40" height="40" rx="20" stroke="#E5E7EB"/>
<path d="M12.125 13.25C10.884 13.25 9.875 14.259 9.875 15.5V17.75C9.875 18.0594 10.1352 18.302 10.427 18.4039C11.0879 18.6324 11.5625 19.2617 11.5625 20C11.5625 20.7383 11.0879 21.3676 10.427 21.5961C10.1352 21.698 9.875 21.9406 9.875 22.25V24.5C9.875 25.741 10.884 26.75 12.125 26.75H27.875C29.116 26.75 30.125 25.741 30.125 24.5V22.25C30.125 21.9406 29.8648 21.698 29.573 21.5961C28.9121 21.3676 28.4375 20.7383 28.4375 20C28.4375 19.2617 28.9121 18.6324 29.573 18.4039C29.8648 18.302 30.125 18.0594 30.125 17.75V15.5C30.125 14.259 29.116 13.25 27.875 13.25H12.125ZM14.375 17.1875V22.8125C14.375 23.1219 14.6281 23.375 14.9375 23.375H25.0625C25.3719 23.375 25.625 23.1219 25.625 22.8125V17.1875C25.625 16.8781 25.3719 16.625 25.0625 16.625H14.9375C14.6281 16.625 14.375 16.8781 14.375 17.1875ZM13.25 16.625C13.25 16.0027 13.7527 15.5 14.375 15.5H25.625C26.2473 15.5 26.75 16.0027 26.75 16.625V23.375C26.75 23.9973 26.2473 24.5 25.625 24.5H14.375C13.7527 24.5 13.25 23.9973 13.25 23.375V16.625Z" fill="white"/>
</svg>
