<svg width="497" height="301" viewBox="0 0 497 301" fill="none" xmlns="http://www.w3.org/2000/svg">
<path d="M64.999 264.996H490.992" stroke="#E5E7EB" stroke-width="0.999983" stroke-dasharray="3 3"/>
<path d="M64.999 199.997H490.992" stroke="#E5E7EB" stroke-width="0.999983" stroke-dasharray="3 3"/>
<path d="M64.999 134.998H490.992" stroke="#E5E7EB" stroke-width="0.999983" stroke-dasharray="3 3"/>
<path d="M64.999 69.999H490.992" stroke="#E5E7EB" stroke-width="0.999983" stroke-dasharray="3 3"/>
<path d="M64.999 5.00024H490.992" stroke="#E5E7EB" stroke-width="0.999983" stroke-dasharray="3 3"/>
<path d="M100.499 5.00024V264.996" stroke="#E5E7EB" stroke-width="0.999983" stroke-dasharray="3 3"/>
<path d="M171.497 5.00024V264.996" stroke="#E5E7EB" stroke-width="0.999983" stroke-dasharray="3 3"/>
<path d="M242.496 5.00024V264.996" stroke="#E5E7EB" stroke-width="0.999983" stroke-dasharray="3 3"/>
<path d="M313.495 5.00024V264.996" stroke="#E5E7EB" stroke-width="0.999983" stroke-dasharray="3 3"/>
<path d="M384.494 5.00024V264.996" stroke="#E5E7EB" stroke-width="0.999983" stroke-dasharray="3 3"/>
<path d="M455.492 5.00024V264.996" stroke="#E5E7EB" stroke-width="0.999983" stroke-dasharray="3 3"/>
<path d="M64.999 5.00024V264.996" stroke="#E5E7EB" stroke-width="0.999983" stroke-dasharray="3 3"/>
<path d="M490.992 5.00024V264.996" stroke="#E5E7EB" stroke-width="0.999983" stroke-dasharray="3 3"/>
<path d="M64.999 264.996H490.992" stroke="#6B7280" stroke-width="0.999983"/>
<path d="M100.499 270.996V264.996" stroke="#6B7280" stroke-width="0.999983"/>
<path d="M94.7479 272.789H95.8047V279.027C95.8047 279.584 95.7025 280.057 95.4979 280.446C95.2934 280.835 95.005 281.131 94.6329 281.333C94.2607 281.534 93.8218 281.635 93.3161 281.635C92.8389 281.635 92.4142 281.549 92.042 281.375C91.6699 281.199 91.3772 280.949 91.1642 280.625C90.9511 280.301 90.8446 279.916 90.8446 279.47H91.8843C91.8843 279.718 91.9454 279.934 92.0676 280.118C92.1926 280.3 92.363 280.442 92.5789 280.544C92.7948 280.647 93.0406 280.698 93.3161 280.698C93.6201 280.698 93.8786 280.634 94.0917 280.506C94.3048 280.378 94.4667 280.191 94.5775 279.943C94.6911 279.693 94.7479 279.388 94.7479 279.027V272.789ZM99.7123 281.669C99.2976 281.669 98.9211 281.591 98.5831 281.435C98.245 281.276 97.9766 281.047 97.7777 280.749C97.5788 280.448 97.4794 280.084 97.4794 279.658C97.4794 279.283 97.5533 278.979 97.701 278.746C97.8487 278.51 98.0462 278.326 98.2933 278.192C98.5405 278.059 98.8132 277.959 99.1115 277.894C99.4126 277.826 99.7152 277.772 100.019 277.732C100.417 277.681 100.739 277.642 100.986 277.617C101.236 277.588 101.418 277.542 101.532 277.476C101.648 277.411 101.707 277.297 101.707 277.135V277.101C101.707 276.681 101.592 276.354 101.361 276.121C101.134 275.888 100.789 275.772 100.326 275.772C99.8458 275.772 99.4694 275.877 99.1967 276.087C98.924 276.297 98.7322 276.522 98.6214 276.76L97.6669 276.419C97.8374 276.022 98.0646 275.712 98.3487 275.49C98.6356 275.266 98.9481 275.11 99.2862 275.022C99.6271 274.931 99.9623 274.885 100.292 274.885C100.502 274.885 100.744 274.911 101.016 274.962C101.292 275.01 101.557 275.111 101.813 275.265C102.072 275.418 102.286 275.649 102.457 275.959C102.627 276.269 102.712 276.684 102.712 277.203V281.516H101.707V280.63H101.655C101.587 280.772 101.474 280.924 101.315 281.085C101.155 281.247 100.944 281.385 100.68 281.499C100.415 281.612 100.093 281.669 99.7123 281.669ZM99.8657 280.766C100.263 280.766 100.599 280.688 100.871 280.532C101.147 280.375 101.354 280.174 101.494 279.926C101.636 279.679 101.707 279.419 101.707 279.147V278.226C101.664 278.277 101.57 278.324 101.425 278.367C101.283 278.407 101.119 278.442 100.931 278.473C100.746 278.502 100.566 278.527 100.39 278.55C100.217 278.57 100.076 278.587 99.968 278.601C99.7066 278.635 99.4623 278.691 99.2351 278.767C99.0106 278.841 98.8288 278.953 98.6896 279.104C98.5533 279.252 98.4851 279.453 98.4851 279.709C98.4851 280.059 98.6143 280.323 98.8729 280.502C99.1342 280.678 99.4652 280.766 99.8657 280.766ZM105.553 277.578V281.516H104.548V274.971H105.519V275.993H105.605C105.758 275.661 105.991 275.394 106.303 275.192C106.616 274.988 107.019 274.885 107.514 274.885C107.957 274.885 108.345 274.976 108.677 275.158C109.009 275.337 109.268 275.61 109.453 275.976C109.637 276.34 109.73 276.8 109.73 277.357V281.516H108.724V277.425C108.724 276.911 108.59 276.51 108.323 276.223C108.056 275.934 107.69 275.789 107.224 275.789C106.903 275.789 106.616 275.858 106.363 275.997C106.113 276.137 105.916 276.34 105.771 276.607C105.626 276.874 105.553 277.198 105.553 277.578Z" fill="#6B7280"/>
<path d="M171.497 270.996V264.996" stroke="#6B7280" stroke-width="0.999983"/>
<path d="M162.054 281.516V272.789H167.287V273.726H163.111V276.675H166.895V277.613H163.111V281.516H162.054ZM171.224 281.652C170.594 281.652 170.05 281.513 169.592 281.235C169.138 280.953 168.787 280.561 168.54 280.059C168.295 279.553 168.173 278.965 168.173 278.294C168.173 277.624 168.295 277.033 168.54 276.522C168.787 276.007 169.131 275.607 169.571 275.32C170.014 275.03 170.531 274.885 171.122 274.885C171.463 274.885 171.8 274.942 172.132 275.056C172.464 275.169 172.767 275.354 173.04 275.61C173.312 275.863 173.53 276.198 173.692 276.615C173.854 277.033 173.935 277.547 173.935 278.158V278.584H168.889V277.715H172.912C172.912 277.345 172.838 277.016 172.69 276.726C172.545 276.436 172.338 276.208 172.068 276.04C171.801 275.873 171.486 275.789 171.122 275.789C170.722 275.789 170.375 275.888 170.082 276.087C169.793 276.283 169.57 276.539 169.413 276.854C169.257 277.169 169.179 277.507 169.179 277.868V278.448C169.179 278.942 169.264 279.361 169.435 279.705C169.608 280.046 169.848 280.306 170.155 280.485C170.462 280.661 170.818 280.749 171.224 280.749C171.489 280.749 171.727 280.712 171.94 280.638C172.156 280.561 172.342 280.448 172.498 280.297C172.655 280.144 172.775 279.953 172.861 279.726L173.832 279.999C173.73 280.328 173.558 280.618 173.317 280.868C173.075 281.115 172.777 281.308 172.422 281.448C172.067 281.584 171.668 281.652 171.224 281.652ZM175.601 281.516V272.789H176.606V276.01H176.692C176.765 275.897 176.868 275.752 176.998 275.576C177.132 275.397 177.322 275.238 177.569 275.098C177.819 274.956 178.157 274.885 178.584 274.885C179.135 274.885 179.621 275.023 180.041 275.299C180.461 275.574 180.79 275.965 181.025 276.471C181.261 276.976 181.379 277.573 181.379 278.26C181.379 278.953 181.261 279.554 181.025 280.063C180.79 280.568 180.463 280.96 180.045 281.239C179.628 281.514 179.146 281.652 178.601 281.652C178.18 281.652 177.844 281.583 177.591 281.443C177.338 281.301 177.143 281.141 177.007 280.962C176.871 280.78 176.765 280.63 176.692 280.51H176.572V281.516H175.601ZM176.589 278.243C176.589 278.738 176.662 279.174 176.807 279.551C176.952 279.926 177.163 280.22 177.442 280.434C177.72 280.644 178.061 280.749 178.464 280.749C178.885 280.749 179.236 280.638 179.517 280.416C179.801 280.192 180.014 279.891 180.156 279.513C180.301 279.132 180.373 278.709 180.373 278.243C180.373 277.783 180.302 277.368 180.16 276.999C180.021 276.627 179.809 276.333 179.525 276.117C179.244 275.898 178.89 275.789 178.464 275.789C178.055 275.789 177.711 275.892 177.433 276.1C177.155 276.304 176.944 276.591 176.802 276.961C176.66 277.327 176.589 277.755 176.589 278.243Z" fill="#6B7280"/>
<path d="M242.496 270.996V264.996" stroke="#6B7280" stroke-width="0.999983"/>
<path d="M232.602 272.789H233.863L236.829 280.033H236.931L239.897 272.789H241.159V281.516H240.17V274.885H240.085L237.358 281.516H236.403L233.676 274.885H233.591V281.516H232.602V272.789ZM245.067 281.669C244.652 281.669 244.276 281.591 243.938 281.435C243.6 281.276 243.331 281.047 243.133 280.749C242.934 280.448 242.834 280.084 242.834 279.658C242.834 279.283 242.908 278.979 243.056 278.746C243.204 278.51 243.401 278.326 243.648 278.192C243.895 278.059 244.168 277.959 244.466 277.894C244.768 277.826 245.07 277.772 245.374 277.732C245.772 277.681 246.094 277.642 246.341 277.617C246.591 277.588 246.773 277.542 246.887 277.476C247.003 277.411 247.062 277.297 247.062 277.135V277.101C247.062 276.681 246.946 276.354 246.716 276.121C246.489 275.888 246.144 275.772 245.681 275.772C245.201 275.772 244.824 275.877 244.552 276.087C244.279 276.297 244.087 276.522 243.976 276.76L243.022 276.419C243.192 276.022 243.42 275.712 243.704 275.49C243.991 275.266 244.303 275.11 244.641 275.022C244.982 274.931 245.317 274.885 245.647 274.885C245.857 274.885 246.098 274.911 246.371 274.962C246.647 275.01 246.912 275.111 247.168 275.265C247.427 275.418 247.641 275.649 247.812 275.959C247.982 276.269 248.067 276.684 248.067 277.203V281.516H247.062V280.63H247.01C246.942 280.772 246.829 280.924 246.669 281.085C246.51 281.247 246.299 281.385 246.035 281.499C245.77 281.612 245.448 281.669 245.067 281.669ZM245.221 280.766C245.618 280.766 245.954 280.688 246.226 280.532C246.502 280.375 246.709 280.174 246.848 279.926C246.991 279.679 247.062 279.419 247.062 279.147V278.226C247.019 278.277 246.925 278.324 246.78 278.367C246.638 278.407 246.473 278.442 246.286 278.473C246.101 278.502 245.921 278.527 245.745 278.55C245.572 278.57 245.431 278.587 245.323 278.601C245.062 278.635 244.817 278.691 244.59 278.767C244.366 278.841 244.184 278.953 244.045 279.104C243.908 279.252 243.84 279.453 243.84 279.709C243.84 280.059 243.969 280.323 244.228 280.502C244.489 280.678 244.82 280.766 245.221 280.766ZM249.903 281.516V274.971H250.874V275.959H250.943C251.062 275.635 251.278 275.373 251.59 275.171C251.903 274.969 252.255 274.868 252.647 274.868C252.721 274.868 252.813 274.87 252.924 274.873C253.035 274.875 253.119 274.88 253.175 274.885V275.908C253.141 275.899 253.063 275.887 252.941 275.87C252.822 275.85 252.695 275.84 252.562 275.84C252.244 275.84 251.96 275.907 251.71 276.04C251.462 276.171 251.266 276.353 251.121 276.586C250.979 276.816 250.908 277.078 250.908 277.374V281.516H249.903Z" fill="#6B7280"/>
<path d="M313.495 270.996V264.996" stroke="#6B7280" stroke-width="0.999983"/>
<path d="M304.966 281.516H303.858L307.063 272.789H308.154L311.358 281.516H310.25L307.642 274.169H307.574L304.966 281.516ZM305.375 278.107H309.841V279.044H305.375V278.107ZM312.581 283.97V274.971H313.553V276.01H313.672C313.746 275.897 313.848 275.752 313.979 275.576C314.112 275.397 314.303 275.238 314.55 275.098C314.8 274.956 315.138 274.885 315.564 274.885C316.115 274.885 316.601 275.023 317.021 275.299C317.442 275.574 317.77 275.965 318.006 276.471C318.242 276.976 318.359 277.573 318.359 278.26C318.359 278.953 318.242 279.554 318.006 280.063C317.77 280.568 317.443 280.96 317.026 281.239C316.608 281.514 316.127 281.652 315.581 281.652C315.161 281.652 314.824 281.583 314.571 281.443C314.318 281.301 314.124 281.141 313.987 280.962C313.851 280.78 313.746 280.63 313.672 280.51H313.587V283.97H312.581ZM313.57 278.243C313.57 278.738 313.642 279.174 313.787 279.551C313.932 279.926 314.144 280.22 314.422 280.434C314.7 280.644 315.041 280.749 315.445 280.749C315.865 280.749 316.216 280.638 316.497 280.416C316.781 280.192 316.994 279.891 317.136 279.513C317.281 279.132 317.354 278.709 317.354 278.243C317.354 277.783 317.283 277.368 317.141 276.999C317.001 276.627 316.79 276.333 316.506 276.117C316.225 275.898 315.871 275.789 315.445 275.789C315.036 275.789 314.692 275.892 314.413 276.1C314.135 276.304 313.925 276.591 313.783 276.961C313.641 277.327 313.57 277.755 313.57 278.243ZM319.893 281.516V274.971H320.865V275.959H320.933C321.053 275.635 321.268 275.373 321.581 275.171C321.893 274.969 322.246 274.868 322.638 274.868C322.712 274.868 322.804 274.87 322.915 274.873C323.026 274.875 323.109 274.88 323.166 274.885V275.908C323.132 275.899 323.054 275.887 322.932 275.87C322.812 275.85 322.686 275.84 322.553 275.84C322.234 275.84 321.95 275.907 321.7 276.04C321.453 276.171 321.257 276.353 321.112 276.586C320.97 276.816 320.899 277.078 320.899 277.374V281.516H319.893Z" fill="#6B7280"/>
<path d="M384.494 270.996V264.996" stroke="#6B7280" stroke-width="0.999983"/>
<path d="M373.609 272.789H374.871L377.836 280.033H377.939L380.905 272.789H382.166V281.516H381.177V274.885H381.092L378.365 281.516H377.41L374.683 274.885H374.598V281.516H373.609V272.789ZM386.075 281.669C385.66 281.669 385.283 281.591 384.945 281.435C384.607 281.276 384.339 281.047 384.14 280.749C383.941 280.448 383.842 280.084 383.842 279.658C383.842 279.283 383.916 278.979 384.063 278.746C384.211 278.51 384.408 278.326 384.656 278.192C384.903 278.059 385.175 277.959 385.474 277.894C385.775 277.826 386.077 277.772 386.381 277.732C386.779 277.681 387.102 277.642 387.349 277.617C387.599 277.588 387.781 277.542 387.894 277.476C388.011 277.411 388.069 277.297 388.069 277.135V277.101C388.069 276.681 387.954 276.354 387.724 276.121C387.496 275.888 387.151 275.772 386.688 275.772C386.208 275.772 385.832 275.877 385.559 276.087C385.286 276.297 385.094 276.522 384.984 276.76L384.029 276.419C384.2 276.022 384.427 275.712 384.711 275.49C384.998 275.266 385.31 275.11 385.648 275.022C385.989 274.931 386.325 274.885 386.654 274.885C386.864 274.885 387.106 274.911 387.379 274.962C387.654 275.01 387.92 275.111 388.175 275.265C388.434 275.418 388.648 275.649 388.819 275.959C388.989 276.269 389.075 276.684 389.075 277.203V281.516H388.069V280.63H388.018C387.95 280.772 387.836 280.924 387.677 281.085C387.518 281.247 387.306 281.385 387.042 281.499C386.778 281.612 386.455 281.669 386.075 281.669ZM386.228 280.766C386.626 280.766 386.961 280.688 387.234 280.532C387.509 280.375 387.717 280.174 387.856 279.926C387.998 279.679 388.069 279.419 388.069 279.147V278.226C388.026 278.277 387.933 278.324 387.788 278.367C387.646 278.407 387.481 278.442 387.293 278.473C387.109 278.502 386.928 278.527 386.752 278.55C386.579 278.57 386.438 278.587 386.33 278.601C386.069 278.635 385.825 278.691 385.597 278.767C385.373 278.841 385.191 278.953 385.052 279.104C384.916 279.252 384.847 279.453 384.847 279.709C384.847 280.059 384.977 280.323 385.235 280.502C385.496 280.678 385.827 280.766 386.228 280.766ZM391.323 283.97C391.153 283.97 391.001 283.956 390.867 283.928C390.734 283.902 390.642 283.877 390.59 283.851L390.846 282.965C391.09 283.027 391.306 283.05 391.494 283.033C391.681 283.016 391.848 282.932 391.992 282.781C392.14 282.634 392.275 282.394 392.397 282.061L392.585 281.55L390.164 274.971H391.255L393.062 280.186H393.13L394.937 274.971H396.028L393.25 282.47C393.125 282.808 392.97 283.088 392.785 283.31C392.6 283.534 392.386 283.7 392.142 283.808C391.9 283.916 391.627 283.97 391.323 283.97Z" fill="#6B7280"/>
<path d="M455.492 270.996V264.996" stroke="#6B7280" stroke-width="0.999983"/>
<path d="M449.636 272.789H450.693V279.027C450.693 279.584 450.591 280.057 450.386 280.446C450.182 280.835 449.893 281.131 449.521 281.333C449.149 281.534 448.71 281.635 448.204 281.635C447.727 281.635 447.302 281.549 446.93 281.375C446.558 281.199 446.265 280.949 446.052 280.625C445.839 280.301 445.733 279.916 445.733 279.47H446.773C446.773 279.718 446.834 279.934 446.956 280.118C447.081 280.3 447.251 280.442 447.467 280.544C447.683 280.647 447.929 280.698 448.204 280.698C448.508 280.698 448.767 280.634 448.98 280.506C449.193 280.378 449.355 280.191 449.466 279.943C449.579 279.693 449.636 279.388 449.636 279.027V272.789ZM456.799 278.84V274.971H457.805V281.516H456.799V280.408H456.731C456.578 280.74 456.339 281.023 456.015 281.256C455.691 281.486 455.282 281.601 454.788 281.601C454.379 281.601 454.015 281.512 453.697 281.333C453.379 281.151 453.129 280.878 452.947 280.514C452.765 280.148 452.674 279.686 452.674 279.13V274.971H453.68V279.061C453.68 279.539 453.814 279.919 454.081 280.203C454.351 280.487 454.694 280.63 455.112 280.63C455.362 280.63 455.616 280.566 455.875 280.438C456.136 280.31 456.355 280.114 456.531 279.85C456.71 279.586 456.799 279.249 456.799 278.84ZM460.653 277.578V281.516H459.647V274.971H460.619V275.993H460.704C460.857 275.661 461.09 275.394 461.403 275.192C461.715 274.988 462.118 274.885 462.613 274.885C463.056 274.885 463.444 274.976 463.776 275.158C464.109 275.337 464.367 275.61 464.552 275.976C464.736 276.34 464.829 276.8 464.829 277.357V281.516H463.823V277.425C463.823 276.911 463.689 276.51 463.422 276.223C463.155 275.934 462.789 275.789 462.323 275.789C462.002 275.789 461.715 275.858 461.462 275.997C461.212 276.137 461.015 276.34 460.87 276.607C460.725 276.874 460.653 277.198 460.653 277.578Z" fill="#6B7280"/>
<path d="M64.9985 5.00024V264.996" stroke="#6B7280" stroke-width="0.999983"/>
<path d="M58.999 264.996H64.999" stroke="#6B7280" stroke-width="0.999983"/>
<path d="M53.2491 269.375C52.6071 269.375 52.0602 269.2 51.6085 268.851C51.1568 268.499 50.8116 267.989 50.573 267.321C50.3344 266.651 50.215 265.841 50.215 264.892C50.215 263.949 50.3344 263.144 50.573 262.476C50.8145 261.806 51.1611 261.294 51.6128 260.942C52.0673 260.587 52.6127 260.409 53.2491 260.409C53.8854 260.409 54.4295 260.587 54.8812 260.942C55.3357 261.294 55.6823 261.806 55.9209 262.476C56.1624 263.144 56.2831 263.949 56.2831 264.892C56.2831 265.841 56.1638 266.651 55.9252 267.321C55.6865 267.989 55.3414 268.499 54.8897 268.851C54.438 269.2 53.8911 269.375 53.2491 269.375ZM53.2491 268.438C53.8854 268.438 54.3798 268.131 54.732 267.517C55.0843 266.904 55.2604 266.029 55.2604 264.892C55.2604 264.137 55.1795 263.493 55.0175 262.962C54.8584 262.431 54.6283 262.026 54.3272 261.747C54.0289 261.469 53.6695 261.33 53.2491 261.33C52.6184 261.33 52.1255 261.641 51.7704 262.263C51.4153 262.882 51.2378 263.759 51.2378 264.892C51.2378 265.648 51.3173 266.29 51.4764 266.818C51.6355 267.347 51.8642 267.749 52.1625 268.024C52.4636 268.3 52.8258 268.438 53.2491 268.438Z" fill="#6B7280"/>
<path d="M58.999 199.997H64.999" stroke="#6B7280" stroke-width="0.999983"/>
<path d="M30.7116 204.376C30.1491 204.376 29.6477 204.28 29.2074 204.087C28.7699 203.893 28.4219 203.625 28.1634 203.281C27.9077 202.935 27.7685 202.533 27.7458 202.075H28.8196C28.8423 202.357 28.9389 202.599 29.1094 202.804C29.2798 203.006 29.5028 203.162 29.7784 203.273C30.054 203.384 30.3593 203.439 30.6946 203.439C31.0696 203.439 31.4019 203.374 31.6917 203.243C31.9815 203.112 32.2087 202.93 32.3735 202.697C32.5383 202.464 32.6207 202.195 32.6207 201.888C32.6207 201.567 32.5411 201.284 32.382 201.04C32.223 200.793 31.99 200.599 31.6832 200.46C31.3764 200.321 31.0014 200.251 30.5582 200.251H29.8594V199.314H30.5582C30.9048 199.314 31.2088 199.251 31.4701 199.126C31.7343 199.001 31.9403 198.825 32.088 198.598C32.2386 198.371 32.3139 198.104 32.3139 197.797C32.3139 197.502 32.2485 197.244 32.1178 197.026C31.9872 196.807 31.8025 196.636 31.5639 196.514C31.3281 196.392 31.0497 196.331 30.7287 196.331C30.4275 196.331 30.1434 196.386 29.8764 196.497C29.6122 196.605 29.3963 196.763 29.2287 196.97C29.0611 197.175 28.9702 197.422 28.956 197.712H27.9333C27.9503 197.254 28.0881 196.854 28.3466 196.51C28.6051 196.163 28.9432 195.894 29.3608 195.7C29.7812 195.507 30.2429 195.411 30.7457 195.411C31.2855 195.411 31.7485 195.52 32.1349 195.739C32.5212 195.955 32.8181 196.24 33.0255 196.595C33.2329 196.95 33.3366 197.334 33.3366 197.746C33.3366 198.237 33.2073 198.656 32.9488 199.003C32.6931 199.349 32.3451 199.59 31.9048 199.723V199.791C32.4559 199.882 32.8863 200.117 33.1959 200.494C33.5056 200.869 33.6604 201.334 33.6604 201.888C33.6604 202.362 33.5312 202.788 33.2727 203.166C33.017 203.541 32.6675 203.837 32.2244 204.053C31.7812 204.268 31.2769 204.376 30.7116 204.376ZM38.2498 204.376C37.6078 204.376 37.0609 204.202 36.6092 203.852C36.1575 203.5 35.8124 202.99 35.5737 202.322C35.3351 201.652 35.2158 200.842 35.2158 199.894C35.2158 198.95 35.3351 198.145 35.5737 197.477C35.8152 196.807 36.1618 196.296 36.6135 195.943C37.068 195.588 37.6135 195.411 38.2498 195.411C38.8862 195.411 39.4302 195.588 39.8819 195.943C40.3364 196.296 40.683 196.807 40.9217 197.477C41.1631 198.145 41.2839 198.95 41.2839 199.894C41.2839 200.842 41.1646 201.652 40.9259 202.322C40.6873 202.99 40.3421 203.5 39.8904 203.852C39.4387 204.202 38.8919 204.376 38.2498 204.376ZM38.2498 203.439C38.8862 203.439 39.3805 203.132 39.7328 202.518C40.085 201.905 40.2612 201.03 40.2612 199.894C40.2612 199.138 40.1802 198.494 40.0183 197.963C39.8592 197.432 39.6291 197.027 39.3279 196.749C39.0297 196.47 38.6703 196.331 38.2498 196.331C37.6192 196.331 37.1263 196.642 36.7712 197.264C36.4161 197.884 36.2385 198.76 36.2385 199.894C36.2385 200.649 36.3181 201.291 36.4771 201.82C36.6362 202.348 36.8649 202.75 37.1632 203.026C37.4643 203.301 37.8265 203.439 38.2498 203.439ZM45.7497 204.376C45.1077 204.376 44.5608 204.202 44.1091 203.852C43.6574 203.5 43.3122 202.99 43.0736 202.322C42.835 201.652 42.7157 200.842 42.7157 199.894C42.7157 198.95 42.835 198.145 43.0736 197.477C43.3151 196.807 43.6617 196.296 44.1134 195.943C44.5679 195.588 45.1134 195.411 45.7497 195.411C46.3861 195.411 46.9301 195.588 47.3818 195.943C47.8363 196.296 48.1829 196.807 48.4215 197.477C48.663 198.145 48.7837 198.95 48.7837 199.894C48.7837 200.842 48.6644 201.652 48.4258 202.322C48.1872 202.99 47.842 203.5 47.3903 203.852C46.9386 204.202 46.3917 204.376 45.7497 204.376ZM45.7497 203.439C46.3861 203.439 46.8804 203.132 47.2326 202.518C47.5849 201.905 47.761 201.03 47.761 199.894C47.761 199.138 47.6801 198.494 47.5181 197.963C47.3591 197.432 47.1289 197.027 46.8278 196.749C46.5295 196.47 46.1702 196.331 45.7497 196.331C45.119 196.331 44.6261 196.642 44.271 197.264C43.9159 197.884 43.7384 198.76 43.7384 199.894C43.7384 200.649 43.8179 201.291 43.977 201.82C44.1361 202.348 44.3648 202.75 44.6631 203.026C44.9642 203.301 45.3264 203.439 45.7497 203.439ZM53.2496 204.376C52.6075 204.376 52.0607 204.202 51.609 203.852C51.1573 203.5 50.8121 202.99 50.5735 202.322C50.3349 201.652 50.2155 200.842 50.2155 199.894C50.2155 198.95 50.3349 198.145 50.5735 197.477C50.815 196.807 51.1615 196.296 51.6132 195.943C52.0678 195.588 52.6132 195.411 53.2496 195.411C53.8859 195.411 54.43 195.588 54.8817 195.943C55.3362 196.296 55.6828 196.807 55.9214 197.477C56.1629 198.145 56.2836 198.95 56.2836 199.894C56.2836 200.842 56.1643 201.652 55.9257 202.322C55.687 202.99 55.3419 203.5 54.8902 203.852C54.4385 204.202 53.8916 204.376 53.2496 204.376ZM53.2496 203.439C53.8859 203.439 54.3802 203.132 54.7325 202.518C55.0848 201.905 55.2609 201.03 55.2609 199.894C55.2609 199.138 55.1799 198.494 55.018 197.963C54.8589 197.432 54.6288 197.027 54.3277 196.749C54.0294 196.47 53.67 196.331 53.2496 196.331C52.6189 196.331 52.126 196.642 51.7709 197.264C51.4158 197.884 51.2382 198.76 51.2382 199.894C51.2382 200.649 51.3178 201.291 51.4769 201.82C51.636 202.348 51.8647 202.75 52.1629 203.026C52.4641 203.301 52.8263 203.439 53.2496 203.439Z" fill="#6B7280"/>
<path d="M58.999 134.998H64.999" stroke="#6B7280" stroke-width="0.999983"/>
<path d="M30.8128 139.377C30.4549 139.372 30.0969 139.304 29.739 139.173C29.381 139.042 29.0543 138.822 28.7589 138.512C28.4634 138.2 28.2262 137.778 28.0472 137.247C27.8683 136.713 27.7788 136.042 27.7788 135.235C27.7788 134.463 27.8512 133.778 27.9961 133.181C28.141 132.582 28.3512 132.078 28.6268 131.669C28.9023 131.257 29.2347 130.944 29.6239 130.731C30.016 130.518 30.4577 130.412 30.9492 130.412C31.4378 130.412 31.8725 130.51 32.2531 130.706C32.6367 130.899 32.9491 131.169 33.1906 131.515C33.4321 131.862 33.5883 132.261 33.6594 132.713H32.6196C32.523 132.321 32.3355 131.995 32.0571 131.737C31.7787 131.478 31.4094 131.349 30.9492 131.349C30.2731 131.349 29.7404 131.643 29.3512 132.231C28.9648 132.819 28.7702 133.645 28.7674 134.707H28.8356C28.9947 134.466 29.1836 134.26 29.4023 134.089C29.6239 133.916 29.8682 133.782 30.1353 133.689C30.4023 133.595 30.685 133.548 30.9833 133.548C31.4833 133.548 31.9406 133.673 32.3554 133.923C32.7702 134.17 33.1026 134.512 33.3525 134.95C33.6025 135.385 33.7275 135.883 33.7275 136.446C33.7275 136.985 33.6068 137.48 33.3653 137.929C33.1239 138.375 32.7844 138.73 32.3469 138.994C31.9122 139.255 31.4009 139.383 30.8128 139.377ZM30.8128 138.44C31.1708 138.44 31.4918 138.35 31.7759 138.171C32.0628 137.992 32.2886 137.752 32.4534 137.451C32.621 137.15 32.7048 136.815 32.7048 136.446C32.7048 136.085 32.6239 135.757 32.4619 135.461C32.3029 135.163 32.0827 134.926 31.8014 134.75C31.523 134.573 31.2049 134.485 30.8469 134.485C30.577 134.485 30.3256 134.539 30.0927 134.647C29.8597 134.752 29.6552 134.897 29.479 135.082C29.3057 135.267 29.1694 135.478 29.07 135.717C28.9705 135.953 28.9208 136.201 28.9208 136.463C28.9208 136.809 29.0018 137.133 29.1637 137.434C29.3285 137.735 29.5529 137.978 29.837 138.163C30.1239 138.348 30.4492 138.44 30.8128 138.44ZM38.2498 139.377C37.6078 139.377 37.0609 139.203 36.6092 138.853C36.1575 138.501 35.8124 137.991 35.5737 137.323C35.3351 136.653 35.2158 135.843 35.2158 134.894C35.2158 133.951 35.3351 133.146 35.5737 132.478C35.8152 131.808 36.1618 131.297 36.6135 130.944C37.068 130.589 37.6135 130.412 38.2498 130.412C38.8862 130.412 39.4302 130.589 39.8819 130.944C40.3364 131.297 40.683 131.808 40.9217 132.478C41.1631 133.146 41.2839 133.951 41.2839 134.894C41.2839 135.843 41.1646 136.653 40.9259 137.323C40.6873 137.991 40.3421 138.501 39.8904 138.853C39.4387 139.203 38.8919 139.377 38.2498 139.377ZM38.2498 138.44C38.8862 138.44 39.3805 138.133 39.7328 137.519C40.085 136.906 40.2612 136.031 40.2612 134.894C40.2612 134.139 40.1802 133.495 40.0183 132.964C39.8592 132.433 39.6291 132.028 39.3279 131.75C39.0297 131.471 38.6703 131.332 38.2498 131.332C37.6192 131.332 37.1263 131.643 36.7712 132.265C36.4161 132.885 36.2385 133.761 36.2385 134.894C36.2385 135.65 36.3181 136.292 36.4771 136.821C36.6362 137.349 36.8649 137.751 37.1632 138.027C37.4643 138.302 37.8265 138.44 38.2498 138.44ZM45.7497 139.377C45.1077 139.377 44.5608 139.203 44.1091 138.853C43.6574 138.501 43.3122 137.991 43.0736 137.323C42.835 136.653 42.7157 135.843 42.7157 134.894C42.7157 133.951 42.835 133.146 43.0736 132.478C43.3151 131.808 43.6617 131.297 44.1134 130.944C44.5679 130.589 45.1134 130.412 45.7497 130.412C46.3861 130.412 46.9301 130.589 47.3818 130.944C47.8363 131.297 48.1829 131.808 48.4215 132.478C48.663 133.146 48.7837 133.951 48.7837 134.894C48.7837 135.843 48.6644 136.653 48.4258 137.323C48.1872 137.991 47.842 138.501 47.3903 138.853C46.9386 139.203 46.3917 139.377 45.7497 139.377ZM45.7497 138.44C46.3861 138.44 46.8804 138.133 47.2326 137.519C47.5849 136.906 47.761 136.031 47.761 134.894C47.761 134.139 47.6801 133.495 47.5181 132.964C47.3591 132.433 47.1289 132.028 46.8278 131.75C46.5295 131.471 46.1702 131.332 45.7497 131.332C45.119 131.332 44.6261 131.643 44.271 132.265C43.9159 132.885 43.7384 133.761 43.7384 134.894C43.7384 135.65 43.8179 136.292 43.977 136.821C44.1361 137.349 44.3648 137.751 44.6631 138.027C44.9642 138.302 45.3264 138.44 45.7497 138.44ZM53.2496 139.377C52.6075 139.377 52.0607 139.203 51.609 138.853C51.1573 138.501 50.8121 137.991 50.5735 137.323C50.3349 136.653 50.2155 135.843 50.2155 134.894C50.2155 133.951 50.3349 133.146 50.5735 132.478C50.815 131.808 51.1615 131.297 51.6132 130.944C52.0678 130.589 52.6132 130.412 53.2496 130.412C53.8859 130.412 54.43 130.589 54.8817 130.944C55.3362 131.297 55.6828 131.808 55.9214 132.478C56.1629 133.146 56.2836 133.951 56.2836 134.894C56.2836 135.843 56.1643 136.653 55.9257 137.323C55.687 137.991 55.3419 138.501 54.8902 138.853C54.4385 139.203 53.8916 139.377 53.2496 139.377ZM53.2496 138.44C53.8859 138.44 54.3802 138.133 54.7325 137.519C55.0848 136.906 55.2609 136.031 55.2609 134.894C55.2609 134.139 55.1799 133.495 55.018 132.964C54.8589 132.433 54.6288 132.028 54.3277 131.75C54.0294 131.471 53.67 131.332 53.2496 131.332C52.6189 131.332 52.126 131.643 51.7709 132.265C51.4158 132.885 51.2382 133.761 51.2382 134.894C51.2382 135.65 51.3178 136.292 51.4769 136.821C51.636 137.349 51.8647 137.751 52.1629 138.027C52.4641 138.302 52.8263 138.44 53.2496 138.44Z" fill="#6B7280"/>
<path d="M58.999 69.999H64.999" stroke="#6B7280" stroke-width="0.999983"/>
<path d="M30.6935 65.4128C31.0515 65.4157 31.4094 65.4839 31.7673 65.6174C32.1253 65.7509 32.452 65.9725 32.7474 66.2821C33.0429 66.589 33.2801 67.008 33.4591 67.5392C33.6381 68.0705 33.7275 68.7366 33.7275 69.5378C33.7275 70.3133 33.6537 71.0022 33.506 71.6045C33.3611 72.2039 33.1508 72.7096 32.8753 73.1215C32.6026 73.5334 32.2702 73.8459 31.8781 74.059C31.4889 74.2721 31.0486 74.3786 30.5571 74.3786C30.0685 74.3786 29.6324 74.282 29.2489 74.0888C28.8683 73.8928 28.5558 73.6215 28.3114 73.2749C28.07 72.9255 27.9151 72.5207 27.847 72.0605H28.8867C28.9805 72.461 29.1665 72.792 29.4449 73.0533C29.7262 73.3119 30.0969 73.4411 30.5571 73.4411C31.2304 73.4411 31.7617 73.1471 32.1509 72.559C32.5429 71.971 32.7389 71.14 32.7389 70.0662H32.6707C32.5117 70.3048 32.3227 70.5108 32.104 70.6841C31.8852 70.8573 31.6424 70.9909 31.3753 71.0846C31.1083 71.1784 30.8242 71.2252 30.5231 71.2252C30.0231 71.2252 29.5643 71.1017 29.1467 70.8545C28.7319 70.6045 28.3995 70.2622 28.1495 69.8275C27.9024 69.39 27.7788 68.8901 27.7788 68.3276C27.7788 67.7935 27.8981 67.3049 28.1367 66.8617C28.3782 66.4157 28.7163 66.0606 29.1509 65.7964C29.5884 65.5322 30.1026 65.4043 30.6935 65.4128ZM30.6935 66.3503C30.3356 66.3503 30.0131 66.4398 29.7262 66.6188C29.4421 66.7949 29.2163 67.0335 29.0486 67.3347C28.8839 67.633 28.8015 67.9639 28.8015 68.3276C28.8015 68.6912 28.881 69.0222 29.0401 69.3204C29.2021 69.6159 29.4222 69.8517 29.7006 70.0278C29.9819 70.2011 30.3015 70.2878 30.6594 70.2878C30.9293 70.2878 31.1807 70.2352 31.4137 70.1301C31.6466 70.0221 31.8497 69.8758 32.023 69.6912C32.1992 69.5037 32.3369 69.292 32.4364 69.0562C32.5358 68.8176 32.5855 68.569 32.5855 68.3105C32.5855 67.9696 32.5031 67.65 32.3384 67.3517C32.1764 67.0534 31.952 66.812 31.6651 66.6273C31.381 66.4427 31.0571 66.3503 30.6935 66.3503ZM38.2498 74.3786C37.6078 74.3786 37.0609 74.2039 36.6092 73.8545C36.1575 73.5022 35.8124 72.9923 35.5737 72.3247C35.3351 71.6542 35.2158 70.8446 35.2158 69.8957C35.2158 68.9526 35.3351 68.1472 35.5737 67.4796C35.8152 66.8091 36.1618 66.2978 36.6135 65.9455C37.068 65.5904 37.6135 65.4128 38.2498 65.4128C38.8862 65.4128 39.4302 65.5904 39.8819 65.9455C40.3364 66.2978 40.683 66.8091 40.9217 67.4796C41.1631 68.1472 41.2839 68.9526 41.2839 69.8957C41.2839 70.8446 41.1646 71.6542 40.9259 72.3247C40.6873 72.9923 40.3421 73.5022 39.8904 73.8545C39.4387 74.2039 38.8919 74.3786 38.2498 74.3786ZM38.2498 73.4411C38.8862 73.4411 39.3805 73.1343 39.7328 72.5207C40.085 71.907 40.2612 71.0321 40.2612 69.8957C40.2612 69.14 40.1802 68.4966 40.0183 67.9654C39.8592 67.4341 39.6291 67.0293 39.3279 66.7509C39.0297 66.4725 38.6703 66.3333 38.2498 66.3333C37.6192 66.3333 37.1263 66.6444 36.7712 67.2665C36.4161 67.8858 36.2385 68.7622 36.2385 69.8957C36.2385 70.6514 36.3181 71.2934 36.4771 71.8218C36.6362 72.3502 36.8649 72.7522 37.1632 73.0278C37.4643 73.3033 37.8265 73.4411 38.2498 73.4411ZM45.7497 74.3786C45.1077 74.3786 44.5608 74.2039 44.1091 73.8545C43.6574 73.5022 43.3122 72.9923 43.0736 72.3247C42.835 71.6542 42.7157 70.8446 42.7157 69.8957C42.7157 68.9526 42.835 68.1472 43.0736 67.4796C43.3151 66.8091 43.6617 66.2978 44.1134 65.9455C44.5679 65.5904 45.1134 65.4128 45.7497 65.4128C46.3861 65.4128 46.9301 65.5904 47.3818 65.9455C47.8363 66.2978 48.1829 66.8091 48.4215 67.4796C48.663 68.1472 48.7837 68.9526 48.7837 69.8957C48.7837 70.8446 48.6644 71.6542 48.4258 72.3247C48.1872 72.9923 47.842 73.5022 47.3903 73.8545C46.9386 74.2039 46.3917 74.3786 45.7497 74.3786ZM45.7497 73.4411C46.3861 73.4411 46.8804 73.1343 47.2326 72.5207C47.5849 71.907 47.761 71.0321 47.761 69.8957C47.761 69.14 47.6801 68.4966 47.5181 67.9654C47.3591 67.4341 47.1289 67.0293 46.8278 66.7509C46.5295 66.4725 46.1702 66.3333 45.7497 66.3333C45.119 66.3333 44.6261 66.6444 44.271 67.2665C43.9159 67.8858 43.7384 68.7622 43.7384 69.8957C43.7384 70.6514 43.8179 71.2934 43.977 71.8218C44.1361 72.3502 44.3648 72.7522 44.6631 73.0278C44.9642 73.3033 45.3264 73.4411 45.7497 73.4411ZM53.2496 74.3786C52.6075 74.3786 52.0607 74.2039 51.609 73.8545C51.1573 73.5022 50.8121 72.9923 50.5735 72.3247C50.3349 71.6542 50.2155 70.8446 50.2155 69.8957C50.2155 68.9526 50.3349 68.1472 50.5735 67.4796C50.815 66.8091 51.1615 66.2978 51.6132 65.9455C52.0678 65.5904 52.6132 65.4128 53.2496 65.4128C53.8859 65.4128 54.43 65.5904 54.8817 65.9455C55.3362 66.2978 55.6828 66.8091 55.9214 67.4796C56.1629 68.1472 56.2836 68.9526 56.2836 69.8957C56.2836 70.8446 56.1643 71.6542 55.9257 72.3247C55.687 72.9923 55.3419 73.5022 54.8902 73.8545C54.4385 74.2039 53.8916 74.3786 53.2496 74.3786ZM53.2496 73.4411C53.8859 73.4411 54.3802 73.1343 54.7325 72.5207C55.0848 71.907 55.2609 71.0321 55.2609 69.8957C55.2609 69.14 55.1799 68.4966 55.018 67.9654C54.8589 67.4341 54.6288 67.0293 54.3277 66.7509C54.0294 66.4725 53.67 66.3333 53.2496 66.3333C52.6189 66.3333 52.126 66.6444 51.7709 67.2665C51.4158 67.8858 51.2382 68.7622 51.2382 69.8957C51.2382 70.6514 51.3178 71.2934 51.4769 71.8218C51.636 72.3502 51.8647 72.7522 52.1629 73.0278C52.4641 73.3033 52.8263 73.4411 53.2496 73.4411Z" fill="#6B7280"/>
<path d="M58.999 5.00024H64.999" stroke="#6B7280" stroke-width="0.999983"/>
<path d="M25.6279 7.53313V16.2603H24.5711V8.64107H24.52L22.3893 10.0558V8.98197L24.5711 7.53313H25.6279ZM28.1378 16.2603V15.4932L31.0184 12.3399C31.3565 11.9706 31.6349 11.6495 31.8536 11.3768C32.0724 11.1013 32.2343 10.8427 32.3394 10.6013C32.4474 10.3569 32.5014 10.1013 32.5014 9.83423C32.5014 9.52742 32.4275 9.2618 32.2798 9.03737C32.1349 8.81294 31.936 8.63965 31.6832 8.51749C31.4304 8.39533 31.1463 8.33425 30.8309 8.33425C30.4957 8.33425 30.2031 8.40386 29.9531 8.54306C29.7059 8.67942 29.5142 8.87118 29.3778 9.11833C29.2443 9.36549 29.1775 9.65525 29.1775 9.98763H28.1719C28.1719 9.47628 28.2898 9.02742 28.5256 8.64107C28.7614 8.25471 29.0824 7.95358 29.4886 7.73767C29.8977 7.52177 30.3565 7.41382 30.865 7.41382C31.3764 7.41382 31.8295 7.52177 32.2244 7.73767C32.6193 7.95358 32.9289 8.24477 33.1533 8.61124C33.3778 8.97771 33.49 9.38537 33.49 9.83423C33.49 10.1552 33.4317 10.4692 33.3153 10.776C33.2016 11.0799 33.0028 11.4194 32.7187 11.7944C32.4374 12.1666 32.0468 12.6211 31.5468 13.158L29.5866 15.2546V15.3228H33.6434V16.2603H28.1378ZM38.2498 16.3796C37.6078 16.3796 37.0609 16.2049 36.6092 15.8554C36.1575 15.5032 35.8124 14.9932 35.5737 14.3256C35.3351 13.6552 35.2158 12.8455 35.2158 11.8967C35.2158 10.9535 35.3351 10.1481 35.5737 9.48054C35.8152 8.8101 36.1618 8.29874 36.6135 7.94648C37.068 7.59137 37.6135 7.41382 38.2498 7.41382C38.8862 7.41382 39.4302 7.59137 39.8819 7.94648C40.3364 8.29874 40.683 8.8101 40.9217 9.48054C41.1631 10.1481 41.2839 10.9535 41.2839 11.8967C41.2839 12.8455 41.1646 13.6552 40.9259 14.3256C40.6873 14.9932 40.3421 15.5032 39.8904 15.8554C39.4387 16.2049 38.8919 16.3796 38.2498 16.3796ZM38.2498 15.4421C38.8862 15.4421 39.3805 15.1353 39.7328 14.5216C40.085 13.908 40.2612 13.033 40.2612 11.8967C40.2612 11.141 40.1802 10.4976 40.0183 9.96633C39.8592 9.43509 39.6291 9.03027 39.3279 8.75186C39.0297 8.47346 38.6703 8.33425 38.2498 8.33425C37.6192 8.33425 37.1263 8.64533 36.7712 9.26748C36.4161 9.88678 36.2385 10.7632 36.2385 11.8967C36.2385 12.6524 36.318 13.2944 36.4771 13.8228C36.6362 14.3512 36.8649 14.7532 37.1632 15.0287C37.4643 15.3043 37.8265 15.4421 38.2498 15.4421ZM45.7497 16.3796C45.1077 16.3796 44.5608 16.2049 44.1091 15.8554C43.6574 15.5032 43.3122 14.9932 43.0736 14.3256C42.835 13.6552 42.7157 12.8455 42.7157 11.8967C42.7157 10.9535 42.835 10.1481 43.0736 9.48054C43.3151 8.8101 43.6617 8.29874 44.1134 7.94648C44.5679 7.59137 45.1134 7.41382 45.7497 7.41382C46.3861 7.41382 46.9301 7.59137 47.3818 7.94648C47.8363 8.29874 48.1829 8.8101 48.4215 9.48054C48.663 10.1481 48.7837 10.9535 48.7837 11.8967C48.7837 12.8455 48.6644 13.6552 48.4258 14.3256C48.1872 14.9932 47.842 15.5032 47.3903 15.8554C46.9386 16.2049 46.3917 16.3796 45.7497 16.3796ZM45.7497 15.4421C46.3861 15.4421 46.8804 15.1353 47.2326 14.5216C47.5849 13.908 47.761 13.033 47.761 11.8967C47.761 11.141 47.6801 10.4976 47.5181 9.96633C47.3591 9.43509 47.1289 9.03027 46.8278 8.75186C46.5295 8.47346 46.1702 8.33425 45.7497 8.33425C45.119 8.33425 44.6261 8.64533 44.271 9.26748C43.9159 9.88678 43.7384 10.7632 43.7384 11.8967C43.7384 12.6524 43.8179 13.2944 43.977 13.8228C44.1361 14.3512 44.3648 14.7532 44.6631 15.0287C44.9642 15.3043 45.3264 15.4421 45.7497 15.4421ZM53.2496 16.3796C52.6075 16.3796 52.0607 16.2049 51.609 15.8554C51.1573 15.5032 50.8121 14.9932 50.5735 14.3256C50.3349 13.6552 50.2155 12.8455 50.2155 11.8967C50.2155 10.9535 50.3349 10.1481 50.5735 9.48054C50.815 8.8101 51.1615 8.29874 51.6132 7.94648C52.0678 7.59137 52.6132 7.41382 53.2496 7.41382C53.8859 7.41382 54.43 7.59137 54.8816 7.94648C55.3362 8.29874 55.6828 8.8101 55.9214 9.48054C56.1629 10.1481 56.2836 10.9535 56.2836 11.8967C56.2836 12.8455 56.1643 13.6552 55.9257 14.3256C55.687 14.9932 55.3419 15.5032 54.8902 15.8554C54.4385 16.2049 53.8916 16.3796 53.2496 16.3796ZM53.2496 15.4421C53.8859 15.4421 54.3802 15.1353 54.7325 14.5216C55.0848 13.908 55.2609 13.033 55.2609 11.8967C55.2609 11.141 55.1799 10.4976 55.018 9.96633C54.8589 9.43509 54.6288 9.03027 54.3277 8.75186C54.0294 8.47346 53.67 8.33425 53.2496 8.33425C52.6189 8.33425 52.126 8.64533 51.7709 9.26748C51.4158 9.88678 51.2382 10.7632 51.2382 11.8967C51.2382 12.6524 51.3178 13.2944 51.4769 13.8228C51.636 14.3512 51.8647 14.7532 52.1629 15.0287C52.4641 15.3043 52.8263 15.4421 53.2496 15.4421Z" fill="#6B7280"/>
<path d="M72.0986 179.497C72.0986 176.315 73.3629 173.262 75.6133 171.012C77.8637 168.762 80.9159 167.497 84.0984 167.497H116.098C119.28 167.497 122.333 168.762 124.583 171.012C126.833 173.262 128.098 176.315 128.098 179.497V264.996H72.0986V179.497Z" fill="#C8F22B"/>
<path d="M143.098 164.331C143.098 161.148 144.362 158.096 146.612 155.846C148.863 153.595 151.915 152.331 155.097 152.331H187.097C190.279 152.331 193.332 153.595 195.582 155.846C197.832 158.096 199.097 161.148 199.097 164.331V264.996H143.098V164.331Z" fill="#C8F22B"/>
<path d="M214.096 129.665C214.096 126.482 215.36 123.43 217.611 121.18C219.861 118.929 222.913 117.665 226.096 117.665H258.095C261.278 117.665 264.33 118.929 266.581 121.18C268.831 123.43 270.095 126.482 270.095 129.665V264.996H214.096V129.665Z" fill="#C8F22B"/>
<path d="M285.095 92.8321C285.095 89.6495 286.359 86.5973 288.609 84.3469C290.86 82.0965 293.912 80.8323 297.095 80.8323H329.094C332.277 80.8323 335.329 82.0965 337.579 84.3469C339.83 86.5973 341.094 89.6495 341.094 92.8321V264.996H285.095V92.8321Z" fill="#C8F22B"/>
<path d="M356.094 71.1658C356.094 67.9833 357.358 64.9311 359.608 62.6807C361.859 60.4303 364.911 59.166 368.094 59.166H400.093C403.276 59.166 406.328 60.4303 408.578 62.6807C410.829 64.9311 412.093 67.9833 412.093 71.1658V264.996H356.094V71.1658Z" fill="#C8F22B"/>
<path d="M427.092 38.6663C427.092 35.4838 428.357 32.4316 430.607 30.1812C432.857 27.9308 435.91 26.6665 439.092 26.6665H471.092C474.274 26.6665 477.326 27.9308 479.577 30.1812C481.827 32.4316 483.091 35.4838 483.091 38.6663V264.996H427.092V38.6663Z" fill="#C8F22B"/>
</svg>
