<svg width="1418" height="1024" viewBox="0 0 1418 1024" fill="none" xmlns="http://www.w3.org/2000/svg">
<g clip-path="url(#clip0_313_2)">
<rect width="1418" height="1024" fill="#2F91F8"/>
<path d="M74.4977 -66H138.502V153.444H74.4977V-66Z" fill="#C8F22B"/>
<path d="M223.525 -30.7826L268.783 14.4755L113.612 169.646L68.3539 124.388L223.525 -30.7826Z" fill="#C8F22B"/>
<path d="M304 99.4977V163.502H84.5556V99.4977H304Z" fill="#C8F22B"/>
<path d="M268.783 248.525L223.525 293.783L68.3539 138.612L113.612 93.3539L268.783 248.525Z" fill="#C8F22B"/>
<path d="M138.502 329H74.4977L74.4977 109.556H138.502L138.502 329Z" fill="#C8F22B"/>
<path d="M-10.5246 293.783L-55.7827 248.524L99.388 93.3539L144.646 138.612L-10.5246 293.783Z" fill="#C8F22B"/>
<path d="M-91 163.502L-91 99.4977H128.444V163.502H-91Z" fill="#C8F22B"/>
<path d="M-55.7826 14.4754L-10.5245 -30.7827L144.646 124.388L99.388 169.646L-55.7826 14.4754Z" fill="#C8F22B"/>
<path d="M1243.5 735H1307.5V954.444H1243.5V735Z" fill="#C8F22B"/>
<path d="M1392.52 770.217L1437.78 815.475L1282.61 970.646L1237.35 925.388L1392.52 770.217Z" fill="#C8F22B"/>
<path d="M1473 900.498V964.502H1253.56V900.498H1473Z" fill="#C8F22B"/>
<path d="M1437.78 1049.52L1392.52 1094.78L1237.35 939.612L1282.61 894.354L1437.78 1049.52Z" fill="#C8F22B"/>
<path d="M1307.5 1130H1243.5L1243.5 910.556H1307.5L1307.5 1130Z" fill="#C8F22B"/>
<path d="M1158.48 1094.78L1113.22 1049.52L1268.39 894.354L1313.65 939.612L1158.48 1094.78Z" fill="#C8F22B"/>
<path d="M1078 964.502L1078 900.498H1297.44V964.502H1078Z" fill="#C8F22B"/>
<path d="M1113.22 815.475L1158.48 770.217L1313.65 925.388L1268.39 970.646L1113.22 815.475Z" fill="#C8F22B"/>
<path d="M1243.5 -66H1307.5V153.444H1243.5V-66Z" fill="white"/>
<path d="M1392.52 -30.7826L1437.78 14.4755L1282.61 169.646L1237.35 124.388L1392.52 -30.7826Z" fill="white"/>
<path d="M1473 99.4977V163.502H1253.56V99.4977H1473Z" fill="white"/>
<path d="M1437.78 248.525L1392.52 293.783L1237.35 138.612L1282.61 93.3539L1437.78 248.525Z" fill="white"/>
<path d="M1307.5 329H1243.5L1243.5 109.556H1307.5L1307.5 329Z" fill="white"/>
<path d="M1158.48 293.783L1113.22 248.524L1268.39 93.3539L1313.65 138.612L1158.48 293.783Z" fill="white"/>
<path d="M1078 163.502L1078 99.4977H1297.44V163.502H1078Z" fill="white"/>
<path d="M1113.22 14.4754L1158.48 -30.7827L1313.65 124.388L1268.39 169.646L1113.22 14.4754Z" fill="white"/>
<path d="M74.4977 735H138.502V954.444H74.4977V735Z" fill="white"/>
<path d="M223.525 770.217L268.783 815.475L113.612 970.646L68.3539 925.388L223.525 770.217Z" fill="white"/>
<path d="M304 900.498V964.502H84.5556V900.498H304Z" fill="white"/>
<path d="M268.783 1049.52L223.525 1094.78L68.3539 939.612L113.612 894.354L268.783 1049.52Z" fill="white"/>
<path d="M138.502 1130H74.4977L74.4977 910.556H138.502L138.502 1130Z" fill="white"/>
<path d="M-10.5246 1094.78L-55.7827 1049.52L99.388 894.354L144.646 939.612L-10.5246 1094.78Z" fill="white"/>
<path d="M-91 964.502L-91 900.498H128.444V964.502H-91Z" fill="white"/>
<path d="M-55.7826 815.475L-10.5245 770.217L144.646 925.388L99.388 970.646L-55.7826 815.475Z" fill="white"/>
</g>
<defs>
<clipPath id="clip0_313_2">
<rect width="1418" height="1024" fill="white"/>
</clipPath>
</defs>
</svg>
