<svg width="20" height="20" viewBox="0 0 20 20" fill="none" xmlns="http://www.w3.org/2000/svg">
<path d="M9.60099 1.91193C9.6375 1.83817 9.6939 1.77608 9.76382 1.73267C9.83374 1.68926 9.9144 1.66626 9.9967 1.66626C10.079 1.66626 10.1597 1.68926 10.2296 1.73267C10.2995 1.77608 10.3559 1.83817 10.3924 1.91193L12.3168 5.80984C12.4436 6.06639 12.6307 6.28835 12.8621 6.45667C13.0936 6.62499 13.3624 6.73463 13.6455 6.77619L17.9491 7.40599C18.0307 7.4178 18.1073 7.4522 18.1703 7.50529C18.2333 7.55838 18.2802 7.62804 18.3057 7.7064C18.3312 7.78475 18.3342 7.86868 18.3145 7.94868C18.2948 8.02867 18.2531 8.10156 18.1941 8.15908L15.0817 11.1898C14.8765 11.3898 14.7229 11.6367 14.6342 11.9092C14.5456 12.1818 14.5245 12.4718 14.5727 12.7543L15.3075 17.0362C15.3219 17.1177 15.3131 17.2016 15.2821 17.2784C15.2511 17.3551 15.1991 17.4216 15.1322 17.4702C15.0652 17.5189 14.9859 17.5477 14.9033 17.5535C14.8208 17.5592 14.7382 17.5416 14.6652 17.5027L10.8181 15.4801C10.5646 15.3469 10.2826 15.2774 9.99628 15.2774C9.70997 15.2774 9.42795 15.3469 9.17446 15.4801L5.3282 17.5027C5.25517 17.5414 5.17275 17.5588 5.09032 17.5529C5.00789 17.5471 4.92876 17.5182 4.86193 17.4696C4.7951 17.421 4.74325 17.3546 4.71228 17.278C4.68131 17.2014 4.67246 17.1176 4.68674 17.0362L5.42067 12.7551C5.46915 12.4725 5.44815 12.1823 5.35947 11.9096C5.2708 11.6369 5.11711 11.3898 4.91167 11.1898L1.79934 8.15991C1.73985 8.10246 1.6977 8.02945 1.67768 7.94921C1.65766 7.86896 1.66058 7.78471 1.68611 7.70605C1.71164 7.62739 1.75874 7.55747 1.82206 7.50427C1.88538 7.45108 1.96237 7.41673 2.04426 7.40515L6.34704 6.77619C6.6305 6.73495 6.89969 6.62545 7.13144 6.45712C7.3632 6.28878 7.55057 6.06664 7.67744 5.80984L9.60099 1.91193Z" stroke="#6B7280" stroke-width="1.66613" stroke-linecap="round" stroke-linejoin="round"/>
</svg>
