<svg width="20" height="20" viewBox="0 0 20 20" fill="none" xmlns="http://www.w3.org/2000/svg">
<path d="M3.33398 7.49992H4.16732M15.834 7.49992H16.6673M7.50065 7.49992H8.33398M11.6673 7.49992H12.5007M3.33398 4.99992C3.33398 4.55789 3.50958 4.13397 3.82214 3.82141C4.1347 3.50885 4.55862 3.33325 5.00065 3.33325H15.0007C15.4427 3.33325 15.8666 3.50885 16.1792 3.82141C16.4917 4.13397 16.6673 4.55789 16.6673 4.99992V14.9999C16.6673 15.4419 16.4917 15.8659 16.1792 16.1784C15.8666 16.491 15.4427 16.6666 15.0007 16.6666H5.00065C4.55862 16.6666 4.1347 16.491 3.82214 16.1784C3.50958 15.8659 3.33398 15.4419 3.33398 14.9999V4.99992Z" stroke="#6B7280" stroke-width="1.66667" stroke-linecap="round" stroke-linejoin="round"/>
</svg>
