<svg width="20" height="20" viewBox="0 0 20 20" fill="none" xmlns="http://www.w3.org/2000/svg">
<path d="M12.4957 1.66602H4.99816C4.55628 1.66602 4.13249 1.84155 3.82003 2.15401C3.50757 2.46647 3.33203 2.89026 3.33203 3.33215V16.6612C3.33203 17.1031 3.50757 17.5269 3.82003 17.8393C4.13249 18.1518 4.55628 18.3273 4.99816 18.3273H14.9949C15.4368 18.3273 15.8606 18.1518 16.1731 17.8393C16.4855 17.5269 16.6611 17.1031 16.6611 16.6612V5.83134L12.4957 1.66602Z" stroke="#6B7280" stroke-width="1.66613" stroke-linecap="round" stroke-linejoin="round"/>
<path d="M11.6631 1.66602V4.99827C11.6631 5.44016 11.8386 5.86395 12.1511 6.17641C12.4635 6.48887 12.8873 6.6644 13.3292 6.6644H16.6615" stroke="#6B7280" stroke-width="1.66613" stroke-linecap="round" stroke-linejoin="round"/>
<path d="M8.33068 7.49756H6.66455" stroke="#6B7280" stroke-width="1.66613" stroke-linecap="round" stroke-linejoin="round"/>
<path d="M13.3291 10.8298H6.66455" stroke="#6B7280" stroke-width="1.66613" stroke-linecap="round" stroke-linejoin="round"/>
<path d="M13.3291 14.1621H6.66455" stroke="#6B7280" stroke-width="1.66613" stroke-linecap="round" stroke-linejoin="round"/>
</svg>
