<svg width="499" height="301" viewBox="0 0 499 301" fill="none" xmlns="http://www.w3.org/2000/svg">
<path d="M64.999 264.996H490.992" stroke="#E5E7EB" stroke-width="0.999983" stroke-dasharray="3 3"/>
<path d="M64.999 199.997H490.992" stroke="#E5E7EB" stroke-width="0.999983" stroke-dasharray="3 3"/>
<path d="M64.999 134.998H490.992" stroke="#E5E7EB" stroke-width="0.999983" stroke-dasharray="3 3"/>
<path d="M64.999 69.999H490.992" stroke="#E5E7EB" stroke-width="0.999983" stroke-dasharray="3 3"/>
<path d="M64.999 5.00024H490.992" stroke="#E5E7EB" stroke-width="0.999983" stroke-dasharray="3 3"/>
<path d="M64.999 5.00024V264.996" stroke="#E5E7EB" stroke-width="0.999983" stroke-dasharray="3 3"/>
<path d="M150.198 5.00024V264.996" stroke="#E5E7EB" stroke-width="0.999983" stroke-dasharray="3 3"/>
<path d="M235.396 5.00024V264.996" stroke="#E5E7EB" stroke-width="0.999983" stroke-dasharray="3 3"/>
<path d="M320.595 5.00024V264.996" stroke="#E5E7EB" stroke-width="0.999983" stroke-dasharray="3 3"/>
<path d="M405.793 5.00024V264.996" stroke="#E5E7EB" stroke-width="0.999983" stroke-dasharray="3 3"/>
<path d="M490.992 5.00024V264.996" stroke="#E5E7EB" stroke-width="0.999983" stroke-dasharray="3 3"/>
<path d="M64.999 264.996H490.992" stroke="#6B7280" stroke-width="0.999983"/>
<path d="M64.999 270.996V264.996" stroke="#6B7280" stroke-width="0.999983"/>
<path d="M59.2484 272.789H60.3052V279.027C60.3052 279.584 60.2029 280.057 59.9984 280.446C59.7939 280.835 59.5055 281.131 59.1334 281.333C58.7612 281.534 58.3223 281.635 57.8166 281.635C57.3394 281.635 56.9146 281.549 56.5425 281.375C56.1703 281.199 55.8777 280.949 55.6647 280.625C55.4516 280.301 55.3451 279.916 55.3451 279.47H56.3848C56.3848 279.718 56.4459 279.934 56.5681 280.118C56.6931 280.3 56.8635 280.442 57.0794 280.544C57.2953 280.647 57.5411 280.698 57.8166 280.698C58.1206 280.698 58.3791 280.634 58.5922 280.506C58.8052 280.378 58.9672 280.191 59.078 279.943C59.1916 279.693 59.2484 279.388 59.2484 279.027V272.789ZM64.2128 281.669C63.798 281.669 63.4216 281.591 63.0836 281.435C62.7455 281.276 62.477 281.047 62.2782 280.749C62.0793 280.448 61.9799 280.084 61.9799 279.658C61.9799 279.283 62.0538 278.979 62.2015 278.746C62.3492 278.51 62.5467 278.326 62.7938 278.192C63.041 278.059 63.3137 277.959 63.612 277.894C63.9131 277.826 64.2157 277.772 64.5196 277.732C64.9173 277.681 65.2398 277.642 65.4869 277.617C65.7369 277.588 65.9188 277.542 66.0324 277.476C66.1489 277.411 66.2071 277.297 66.2071 277.135V277.101C66.2071 276.681 66.092 276.354 65.8619 276.121C65.6347 275.888 65.2895 275.772 64.8264 275.772C64.3463 275.772 63.9699 275.877 63.6972 276.087C63.4245 276.297 63.2327 276.522 63.1219 276.76L62.1674 276.419C62.3378 276.022 62.5651 275.712 62.8492 275.49C63.1361 275.266 63.4486 275.11 63.7867 275.022C64.1276 274.931 64.4628 274.885 64.7924 274.885C65.0026 274.885 65.244 274.911 65.5168 274.962C65.7923 275.01 66.058 275.111 66.3136 275.265C66.5721 275.418 66.7866 275.649 66.9571 275.959C67.1275 276.269 67.2128 276.684 67.2128 277.203V281.516H66.2071V280.63H66.156C66.0878 280.772 65.9741 280.924 65.8151 281.085C65.656 281.247 65.4443 281.385 65.1801 281.499C64.9159 281.612 64.5935 281.669 64.2128 281.669ZM64.3662 280.766C64.7639 280.766 65.0992 280.688 65.3719 280.532C65.6474 280.375 65.8548 280.174 65.994 279.926C66.1361 279.679 66.2071 279.419 66.2071 279.147V278.226C66.1645 278.277 66.0707 278.324 65.9259 278.367C65.7838 278.407 65.619 278.442 65.4315 278.473C65.2469 278.502 65.0665 278.527 64.8904 278.55C64.7171 278.57 64.5764 278.587 64.4685 278.601C64.2071 278.635 63.9628 278.691 63.7356 278.767C63.5111 278.841 63.3293 278.953 63.1901 279.104C63.0537 279.252 62.9856 279.453 62.9856 279.709C62.9856 280.059 63.1148 280.323 63.3733 280.502C63.6347 280.678 63.9657 280.766 64.3662 280.766ZM70.054 277.578V281.516H69.0483V274.971H70.0199V275.993H70.1051C70.2585 275.661 70.4915 275.394 70.804 275.192C71.1165 274.988 71.5199 274.885 72.0142 274.885C72.4573 274.885 72.8451 274.976 73.1775 275.158C73.5099 275.337 73.7684 275.61 73.9531 275.976C74.1377 276.34 74.23 276.8 74.23 277.357V281.516H73.2244V277.425C73.2244 276.911 73.0909 276.51 72.8238 276.223C72.5568 275.934 72.1903 275.789 71.7244 275.789C71.4034 275.789 71.1165 275.858 70.8636 275.997C70.6136 276.137 70.4162 276.34 70.2713 276.607C70.1264 276.874 70.054 277.198 70.054 277.578Z" fill="#6B7280"/>
<path d="M150.198 270.996V264.996" stroke="#6B7280" stroke-width="0.999983"/>
<path d="M140.755 281.516V272.789H145.988V273.726H141.812V276.675H145.596V277.613H141.812V281.516H140.755ZM149.925 281.652C149.294 281.652 148.75 281.513 148.293 281.235C147.838 280.953 147.488 280.561 147.24 280.059C146.996 279.553 146.874 278.965 146.874 278.294C146.874 277.624 146.996 277.033 147.24 276.522C147.488 276.007 147.831 275.607 148.272 275.32C148.715 275.03 149.232 274.885 149.823 274.885C150.164 274.885 150.5 274.942 150.833 275.056C151.165 275.169 151.468 275.354 151.74 275.61C152.013 275.863 152.23 276.198 152.392 276.615C152.554 277.033 152.635 277.547 152.635 278.158V278.584H147.59V277.715H151.613C151.613 277.345 151.539 277.016 151.391 276.726C151.246 276.436 151.039 276.208 150.769 276.04C150.502 275.873 150.186 275.789 149.823 275.789C149.422 275.789 149.076 275.888 148.783 276.087C148.493 276.283 148.27 276.539 148.114 276.854C147.958 277.169 147.88 277.507 147.88 277.868V278.448C147.88 278.942 147.965 279.361 148.135 279.705C148.309 280.046 148.549 280.306 148.855 280.485C149.162 280.661 149.519 280.749 149.925 280.749C150.189 280.749 150.428 280.712 150.641 280.638C150.857 280.561 151.043 280.448 151.199 280.297C151.355 280.144 151.476 279.953 151.561 279.726L152.533 279.999C152.431 280.328 152.259 280.618 152.017 280.868C151.776 281.115 151.478 281.308 151.122 281.448C150.767 281.584 150.368 281.652 149.925 281.652ZM154.301 281.516V272.789H155.307V276.01H155.392C155.466 275.897 155.568 275.752 155.699 275.576C155.833 275.397 156.023 275.238 156.27 275.098C156.52 274.956 156.858 274.885 157.284 274.885C157.835 274.885 158.321 275.023 158.742 275.299C159.162 275.574 159.49 275.965 159.726 276.471C159.962 276.976 160.08 277.573 160.08 278.26C160.08 278.953 159.962 279.554 159.726 280.063C159.49 280.568 159.164 280.96 158.746 281.239C158.328 281.514 157.847 281.652 157.301 281.652C156.881 281.652 156.544 281.583 156.291 281.443C156.039 281.301 155.844 281.141 155.708 280.962C155.571 280.78 155.466 280.63 155.392 280.51H155.273V281.516H154.301ZM155.29 278.243C155.29 278.738 155.362 279.174 155.507 279.551C155.652 279.926 155.864 280.22 156.142 280.434C156.421 280.644 156.762 280.749 157.165 280.749C157.585 280.749 157.936 280.638 158.218 280.416C158.502 280.192 158.715 279.891 158.857 279.513C159.002 279.132 159.074 278.709 159.074 278.243C159.074 277.783 159.003 277.368 158.861 276.999C158.722 276.627 158.51 276.333 158.226 276.117C157.945 275.898 157.591 275.789 157.165 275.789C156.756 275.789 156.412 275.892 156.134 276.1C155.855 276.304 155.645 276.591 155.503 276.961C155.361 277.327 155.29 277.755 155.29 278.243Z" fill="#6B7280"/>
<path d="M235.396 270.996V264.996" stroke="#6B7280" stroke-width="0.999983"/>
<path d="M225.502 272.789H226.763L229.729 280.033H229.831L232.797 272.789H234.058V281.516H233.07V274.885H232.985L230.257 281.516H229.303L226.576 274.885H226.49V281.516H225.502V272.789ZM237.967 281.669C237.552 281.669 237.176 281.591 236.838 281.435C236.5 281.276 236.231 281.047 236.033 280.749C235.834 280.448 235.734 280.084 235.734 279.658C235.734 279.283 235.808 278.979 235.956 278.746C236.104 278.51 236.301 278.326 236.548 278.192C236.795 278.059 237.068 277.959 237.366 277.894C237.667 277.826 237.97 277.772 238.274 277.732C238.672 277.681 238.994 277.642 239.241 277.617C239.491 277.588 239.673 277.542 239.787 277.476C239.903 277.411 239.961 277.297 239.961 277.135V277.101C239.961 276.681 239.846 276.354 239.616 276.121C239.389 275.888 239.044 275.772 238.581 275.772C238.101 275.772 237.724 275.877 237.452 276.087C237.179 276.297 236.987 276.522 236.876 276.76L235.922 276.419C236.092 276.022 236.319 275.712 236.604 275.49C236.89 275.266 237.203 275.11 237.541 275.022C237.882 274.931 238.217 274.885 238.547 274.885C238.757 274.885 238.998 274.911 239.271 274.962C239.547 275.01 239.812 275.111 240.068 275.265C240.326 275.418 240.541 275.649 240.711 275.959C240.882 276.269 240.967 276.684 240.967 277.203V281.516H239.961V280.63H239.91C239.842 280.772 239.728 280.924 239.569 281.085C239.41 281.247 239.199 281.385 238.934 281.499C238.67 281.612 238.348 281.669 237.967 281.669ZM238.121 280.766C238.518 280.766 238.854 280.688 239.126 280.532C239.402 280.375 239.609 280.174 239.748 279.926C239.89 279.679 239.961 279.419 239.961 279.147V278.226C239.919 278.277 239.825 278.324 239.68 278.367C239.538 278.407 239.373 278.442 239.186 278.473C239.001 278.502 238.821 278.527 238.645 278.55C238.471 278.57 238.331 278.587 238.223 278.601C237.961 278.635 237.717 278.691 237.49 278.767C237.265 278.841 237.084 278.953 236.944 279.104C236.808 279.252 236.74 279.453 236.74 279.709C236.74 280.059 236.869 280.323 237.128 280.502C237.389 280.678 237.72 280.766 238.121 280.766ZM242.803 281.516V274.971H243.774V275.959H243.842C243.962 275.635 244.178 275.373 244.49 275.171C244.803 274.969 245.155 274.868 245.547 274.868C245.621 274.868 245.713 274.87 245.824 274.873C245.935 274.875 246.019 274.88 246.075 274.885V275.908C246.041 275.899 245.963 275.887 245.841 275.87C245.722 275.85 245.595 275.84 245.462 275.84C245.144 275.84 244.859 275.907 244.609 276.04C244.362 276.171 244.166 276.353 244.021 276.586C243.879 276.816 243.808 277.078 243.808 277.374V281.516H242.803Z" fill="#6B7280"/>
<path d="M320.595 270.996V264.996" stroke="#6B7280" stroke-width="0.999983"/>
<path d="M312.066 281.516H310.958L314.163 272.789H315.254L318.458 281.516H317.35L314.742 274.169H314.674L312.066 281.516ZM312.475 278.107H316.941V279.044H312.475V278.107ZM319.681 283.97V274.971H320.653V276.01H320.772C320.846 275.897 320.948 275.752 321.079 275.576C321.212 275.397 321.403 275.238 321.65 275.098C321.9 274.956 322.238 274.885 322.664 274.885C323.215 274.885 323.701 275.023 324.121 275.299C324.542 275.574 324.87 275.965 325.106 276.471C325.342 276.976 325.46 277.573 325.46 278.26C325.46 278.953 325.342 279.554 325.106 280.063C324.87 280.568 324.543 280.96 324.126 281.239C323.708 281.514 323.227 281.652 322.681 281.652C322.261 281.652 321.924 281.583 321.671 281.443C321.418 281.301 321.224 281.141 321.087 280.962C320.951 280.78 320.846 280.63 320.772 280.51H320.687V283.97H319.681ZM320.67 278.243C320.67 278.738 320.742 279.174 320.887 279.551C321.032 279.926 321.244 280.22 321.522 280.434C321.8 280.644 322.141 280.749 322.545 280.749C322.965 280.749 323.316 280.638 323.597 280.416C323.881 280.192 324.094 279.891 324.237 279.513C324.381 279.132 324.454 278.709 324.454 278.243C324.454 277.783 324.383 277.368 324.241 276.999C324.102 276.627 323.89 276.333 323.606 276.117C323.325 275.898 322.971 275.789 322.545 275.789C322.136 275.789 321.792 275.892 321.514 276.1C321.235 276.304 321.025 276.591 320.883 276.961C320.741 277.327 320.67 277.755 320.67 278.243ZM326.994 281.516V274.971H327.965V275.959H328.033C328.153 275.635 328.369 275.373 328.681 275.171C328.994 274.969 329.346 274.868 329.738 274.868C329.812 274.868 329.904 274.87 330.015 274.873C330.126 274.875 330.209 274.88 330.266 274.885V275.908C330.232 275.899 330.154 275.887 330.032 275.87C329.913 275.85 329.786 275.84 329.653 275.84C329.334 275.84 329.05 275.907 328.8 276.04C328.553 276.171 328.357 276.353 328.212 276.586C328.07 276.816 327.999 277.078 327.999 277.374V281.516H326.994Z" fill="#6B7280"/>
<path d="M405.793 270.996V264.996" stroke="#6B7280" stroke-width="0.999983"/>
<path d="M394.909 272.789H396.17L399.136 280.033H399.238L402.204 272.789H403.465V281.516H402.477V274.885H402.391L399.664 281.516H398.71L395.982 274.885H395.897V281.516H394.909V272.789ZM407.374 281.669C406.959 281.669 406.583 281.591 406.245 281.435C405.907 281.276 405.638 281.047 405.439 280.749C405.24 280.448 405.141 280.084 405.141 279.658C405.141 279.283 405.215 278.979 405.363 278.746C405.51 278.51 405.708 278.326 405.955 278.192C406.202 278.059 406.475 277.959 406.773 277.894C407.074 277.826 407.377 277.772 407.681 277.732C408.078 277.681 408.401 277.642 408.648 277.617C408.898 277.588 409.08 277.542 409.193 277.476C409.31 277.411 409.368 277.297 409.368 277.135V277.101C409.368 276.681 409.253 276.354 409.023 276.121C408.796 275.888 408.451 275.772 407.988 275.772C407.507 275.772 407.131 275.877 406.858 276.087C406.586 276.297 406.394 276.522 406.283 276.76L405.328 276.419C405.499 276.022 405.726 275.712 406.01 275.49C406.297 275.266 406.61 275.11 406.948 275.022C407.289 274.931 407.624 274.885 407.953 274.885C408.164 274.885 408.405 274.911 408.678 274.962C408.953 275.01 409.219 275.111 409.475 275.265C409.733 275.418 409.948 275.649 410.118 275.959C410.289 276.269 410.374 276.684 410.374 277.203V281.516H409.368V280.63H409.317C409.249 280.772 409.135 280.924 408.976 281.085C408.817 281.247 408.605 281.385 408.341 281.499C408.077 281.612 407.755 281.669 407.374 281.669ZM407.527 280.766C407.925 280.766 408.26 280.688 408.533 280.532C408.809 280.375 409.016 280.174 409.155 279.926C409.297 279.679 409.368 279.419 409.368 279.147V278.226C409.326 278.277 409.232 278.324 409.087 278.367C408.945 278.407 408.78 278.442 408.593 278.473C408.408 278.502 408.228 278.527 408.051 278.55C407.878 278.57 407.738 278.587 407.63 278.601C407.368 278.635 407.124 278.691 406.897 278.767C406.672 278.841 406.49 278.953 406.351 279.104C406.215 279.252 406.147 279.453 406.147 279.709C406.147 280.059 406.276 280.323 406.534 280.502C406.796 280.678 407.127 280.766 407.527 280.766ZM412.623 283.97C412.452 283.97 412.3 283.956 412.167 283.928C412.033 283.902 411.941 283.877 411.89 283.851L412.145 282.965C412.39 283.027 412.606 283.05 412.793 283.033C412.981 283.016 413.147 282.932 413.292 282.781C413.439 282.634 413.574 282.394 413.697 282.061L413.884 281.55L411.464 274.971H412.555L414.361 280.186H414.43L416.236 274.971H417.327L414.549 282.47C414.424 282.808 414.269 283.088 414.084 283.31C413.9 283.534 413.685 283.7 413.441 283.808C413.199 283.916 412.927 283.97 412.623 283.97Z" fill="#6B7280"/>
<path d="M490.992 270.996V264.996" stroke="#6B7280" stroke-width="0.999983"/>
<path d="M477.236 272.789H478.293V279.027C478.293 279.584 478.19 280.057 477.986 280.446C477.781 280.835 477.493 281.131 477.121 281.333C476.749 281.534 476.31 281.635 475.804 281.635C475.327 281.635 474.902 281.549 474.53 281.375C474.158 281.199 473.865 280.949 473.652 280.625C473.439 280.301 473.332 279.916 473.332 279.47H474.372C474.372 279.718 474.433 279.934 474.555 280.118C474.68 280.3 474.851 280.442 475.067 280.544C475.283 280.647 475.528 280.698 475.804 280.698C476.108 280.698 476.366 280.634 476.579 280.506C476.793 280.378 476.954 280.191 477.065 279.943C477.179 279.693 477.236 279.388 477.236 279.027V272.789ZM484.399 278.84V274.971H485.405V281.516H484.399V280.408H484.331C484.177 280.74 483.939 281.023 483.615 281.256C483.291 281.486 482.882 281.601 482.388 281.601C481.979 281.601 481.615 281.512 481.297 281.333C480.979 281.151 480.729 280.878 480.547 280.514C480.365 280.148 480.274 279.686 480.274 279.13V274.971H481.28V279.061C481.28 279.539 481.413 279.919 481.68 280.203C481.95 280.487 482.294 280.63 482.711 280.63C482.961 280.63 483.216 280.566 483.474 280.438C483.736 280.31 483.954 280.114 484.13 279.85C484.309 279.586 484.399 279.249 484.399 278.84ZM488.252 277.578V281.516H487.247V274.971H488.218V275.993H488.303C488.457 275.661 488.69 275.394 489.002 275.192C489.315 274.988 489.718 274.885 490.212 274.885C490.656 274.885 491.043 274.976 491.376 275.158C491.708 275.337 491.967 275.61 492.151 275.976C492.336 276.34 492.428 276.8 492.428 277.357V281.516H491.423V277.425C491.423 276.911 491.289 276.51 491.022 276.223C490.755 275.934 490.389 275.789 489.923 275.789C489.602 275.789 489.315 275.858 489.062 275.997C488.812 276.137 488.614 276.34 488.47 276.607C488.325 276.874 488.252 277.198 488.252 277.578Z" fill="#6B7280"/>
<path d="M64.999 5.00024V264.996" stroke="#6B7280" stroke-width="0.999983"/>
<path d="M58.9995 264.996H64.9995" stroke="#6B7280" stroke-width="0.999983"/>
<path d="M53.2496 269.375C52.6075 269.375 52.0607 269.2 51.609 268.851C51.1573 268.499 50.8121 267.989 50.5735 267.321C50.3349 266.651 50.2155 265.841 50.2155 264.892C50.2155 263.949 50.3349 263.144 50.5735 262.476C50.815 261.806 51.1615 261.294 51.6132 260.942C52.0678 260.587 52.6132 260.409 53.2496 260.409C53.8859 260.409 54.43 260.587 54.8817 260.942C55.3362 261.294 55.6828 261.806 55.9214 262.476C56.1629 263.144 56.2836 263.949 56.2836 264.892C56.2836 265.841 56.1643 266.651 55.9257 267.321C55.687 267.989 55.3419 268.499 54.8902 268.851C54.4385 269.2 53.8916 269.375 53.2496 269.375ZM53.2496 268.438C53.8859 268.438 54.3802 268.131 54.7325 267.517C55.0848 266.904 55.2609 266.029 55.2609 264.892C55.2609 264.137 55.1799 263.493 55.018 262.962C54.8589 262.431 54.6288 262.026 54.3277 261.747C54.0294 261.469 53.67 261.33 53.2496 261.33C52.6189 261.33 52.126 261.641 51.7709 262.263C51.4158 262.882 51.2382 263.759 51.2382 264.892C51.2382 265.648 51.3178 266.29 51.4769 266.818C51.636 267.347 51.8647 267.749 52.1629 268.024C52.4641 268.3 52.8263 268.438 53.2496 268.438Z" fill="#6B7280"/>
<path d="M58.999 199.997H64.999" stroke="#6B7280" stroke-width="0.999983"/>
<path d="M45.7114 204.376C45.1489 204.376 44.6475 204.28 44.2071 204.087C43.7696 203.893 43.4216 203.625 43.1631 203.281C42.9074 202.935 42.7682 202.533 42.7455 202.075H43.8193C43.8421 202.357 43.9387 202.599 44.1091 202.804C44.2796 203.006 44.5026 203.162 44.7781 203.273C45.0537 203.384 45.3591 203.439 45.6943 203.439C46.0693 203.439 46.4017 203.374 46.6915 203.243C46.9812 203.112 47.2085 202.93 47.3733 202.697C47.538 202.464 47.6204 202.195 47.6204 201.888C47.6204 201.567 47.5409 201.284 47.3818 201.04C47.2227 200.793 46.9897 200.599 46.6829 200.46C46.3761 200.321 46.0011 200.251 45.5579 200.251H44.8591V199.314H45.5579C45.9045 199.314 46.2085 199.251 46.4699 199.126C46.7341 199.001 46.94 198.825 47.0878 198.598C47.2383 198.371 47.3136 198.104 47.3136 197.797C47.3136 197.502 47.2483 197.244 47.1176 197.026C46.9869 196.807 46.8022 196.636 46.5636 196.514C46.3278 196.392 46.0494 196.331 45.7284 196.331C45.4273 196.331 45.1432 196.386 44.8761 196.497C44.6119 196.605 44.396 196.763 44.2284 196.97C44.0608 197.175 43.9699 197.422 43.9557 197.712H42.933C42.95 197.254 43.0878 196.854 43.3463 196.51C43.6049 196.163 43.9429 195.894 44.3605 195.7C44.781 195.507 45.2426 195.411 45.7454 195.411C46.2852 195.411 46.7483 195.52 47.1346 195.739C47.521 195.955 47.8179 196.24 48.0252 196.595C48.2326 196.95 48.3363 197.334 48.3363 197.746C48.3363 198.237 48.2071 198.656 47.9485 199.003C47.6929 199.349 47.3448 199.59 46.9045 199.723V199.791C47.4556 199.882 47.886 200.117 48.1957 200.494C48.5053 200.869 48.6602 201.334 48.6602 201.888C48.6602 202.362 48.5309 202.788 48.2724 203.166C48.0167 203.541 47.6673 203.837 47.2241 204.053C46.7809 204.268 46.2767 204.376 45.7114 204.376ZM53.2496 204.376C52.6075 204.376 52.0607 204.202 51.609 203.852C51.1573 203.5 50.8121 202.99 50.5735 202.322C50.3349 201.652 50.2155 200.842 50.2155 199.894C50.2155 198.95 50.3349 198.145 50.5735 197.477C50.815 196.807 51.1615 196.296 51.6132 195.943C52.0678 195.588 52.6132 195.411 53.2496 195.411C53.8859 195.411 54.43 195.588 54.8817 195.943C55.3362 196.296 55.6828 196.807 55.9214 197.477C56.1629 198.145 56.2836 198.95 56.2836 199.894C56.2836 200.842 56.1643 201.652 55.9257 202.322C55.687 202.99 55.3419 203.5 54.8902 203.852C54.4385 204.202 53.8916 204.376 53.2496 204.376ZM53.2496 203.439C53.8859 203.439 54.3802 203.132 54.7325 202.518C55.0848 201.905 55.2609 201.03 55.2609 199.894C55.2609 199.138 55.1799 198.494 55.018 197.963C54.8589 197.432 54.6288 197.027 54.3277 196.749C54.0294 196.47 53.67 196.331 53.2496 196.331C52.6189 196.331 52.126 196.642 51.7709 197.264C51.4158 197.884 51.2382 198.76 51.2382 199.894C51.2382 200.649 51.3178 201.291 51.4769 201.82C51.636 202.348 51.8647 202.75 52.1629 203.026C52.4641 203.301 52.8263 203.439 53.2496 203.439Z" fill="#6B7280"/>
<path d="M58.999 134.998H64.999" stroke="#6B7280" stroke-width="0.999983"/>
<path d="M45.8126 139.377C45.4546 139.372 45.0967 139.304 44.7387 139.173C44.3808 139.042 44.0541 138.822 43.7586 138.512C43.4632 138.2 43.226 137.778 43.047 137.247C42.868 136.713 42.7785 136.042 42.7785 135.235C42.7785 134.463 42.851 133.778 42.9958 133.181C43.1407 132.582 43.351 132.078 43.6265 131.669C43.9021 131.257 44.2345 130.944 44.6237 130.731C45.0157 130.518 45.4575 130.412 45.9489 130.412C46.4375 130.412 46.8722 130.51 47.2529 130.706C47.6364 130.899 47.9489 131.169 48.1904 131.515C48.4318 131.862 48.5881 132.261 48.6591 132.713H47.6193C47.5228 132.321 47.3353 131.995 47.0569 131.737C46.7785 131.478 46.4091 131.349 45.9489 131.349C45.2728 131.349 44.7401 131.643 44.3509 132.231C43.9646 132.819 43.77 133.645 43.7671 134.707H43.8353C43.9944 134.466 44.1833 134.26 44.4021 134.089C44.6237 133.916 44.868 133.782 45.135 133.689C45.4021 133.595 45.6847 133.548 45.983 133.548C46.483 133.548 46.9404 133.673 47.3551 133.923C47.7699 134.17 48.1023 134.512 48.3523 134.95C48.6023 135.385 48.7273 135.883 48.7273 136.446C48.7273 136.985 48.6065 137.48 48.3651 137.929C48.1236 138.375 47.7841 138.73 47.3466 138.994C46.912 139.255 46.4006 139.383 45.8126 139.377ZM45.8126 138.44C46.1705 138.44 46.4915 138.35 46.7756 138.171C47.0625 137.992 47.2884 137.752 47.4532 137.451C47.6208 137.15 47.7046 136.815 47.7046 136.446C47.7046 136.085 47.6236 135.757 47.4617 135.461C47.3026 135.163 47.0824 134.926 46.8012 134.75C46.5228 134.573 46.2046 134.485 45.8467 134.485C45.5768 134.485 45.3254 134.539 45.0924 134.647C44.8595 134.752 44.6549 134.897 44.4788 135.082C44.3055 135.267 44.1691 135.478 44.0697 135.717C43.9703 135.953 43.9205 136.201 43.9205 136.463C43.9205 136.809 44.0015 137.133 44.1634 137.434C44.3282 137.735 44.5526 137.978 44.8367 138.163C45.1237 138.348 45.4489 138.44 45.8126 138.44ZM53.2496 139.377C52.6075 139.377 52.0607 139.203 51.609 138.853C51.1573 138.501 50.8121 137.991 50.5735 137.323C50.3349 136.653 50.2155 135.843 50.2155 134.894C50.2155 133.951 50.3349 133.146 50.5735 132.478C50.815 131.808 51.1615 131.297 51.6132 130.944C52.0678 130.589 52.6132 130.412 53.2496 130.412C53.8859 130.412 54.43 130.589 54.8817 130.944C55.3362 131.297 55.6828 131.808 55.9214 132.478C56.1629 133.146 56.2836 133.951 56.2836 134.894C56.2836 135.843 56.1643 136.653 55.9257 137.323C55.687 137.991 55.3419 138.501 54.8902 138.853C54.4385 139.203 53.8916 139.377 53.2496 139.377ZM53.2496 138.44C53.8859 138.44 54.3802 138.133 54.7325 137.519C55.0848 136.906 55.2609 136.031 55.2609 134.894C55.2609 134.139 55.1799 133.495 55.018 132.964C54.8589 132.433 54.6288 132.028 54.3277 131.75C54.0294 131.471 53.67 131.332 53.2496 131.332C52.6189 131.332 52.126 131.643 51.7709 132.265C51.4158 132.885 51.2382 133.761 51.2382 134.894C51.2382 135.65 51.3178 136.292 51.4769 136.821C51.636 137.349 51.8647 137.751 52.1629 138.027C52.4641 138.302 52.8263 138.44 53.2496 138.44Z" fill="#6B7280"/>
<path d="M58.999 69.999H64.999" stroke="#6B7280" stroke-width="0.999983"/>
<path d="M45.6932 65.4128C46.0512 65.4157 46.4091 65.4839 46.7671 65.6174C47.125 65.7509 47.4517 65.9725 47.7472 66.2821C48.0426 66.589 48.2798 67.008 48.4588 67.5392C48.6378 68.0705 48.7273 68.7366 48.7273 69.5378C48.7273 70.3133 48.6534 71.0022 48.5057 71.6045C48.3608 72.2039 48.1506 72.7096 47.875 73.1215C47.6023 73.5334 47.2699 73.8459 46.8779 74.059C46.4887 74.2721 46.0484 74.3786 45.5569 74.3786C45.0683 74.3786 44.6322 74.282 44.2487 74.0888C43.868 73.8928 43.5555 73.6215 43.3112 73.2749C43.0697 72.9255 42.9149 72.5207 42.8467 72.0605H43.8865C43.9802 72.461 44.1663 72.792 44.4447 73.0533C44.7259 73.3119 45.0967 73.4411 45.5569 73.4411C46.2302 73.4411 46.7614 73.1471 47.1506 72.559C47.5426 71.971 47.7387 71.14 47.7387 70.0662H47.6705C47.5114 70.3048 47.3225 70.5108 47.1037 70.6841C46.885 70.8573 46.6421 70.9909 46.3751 71.0846C46.108 71.1784 45.8239 71.2252 45.5228 71.2252C45.0228 71.2252 44.564 71.1017 44.1464 70.8545C43.7316 70.6045 43.3992 70.2622 43.1493 69.8275C42.9021 69.39 42.7785 68.8901 42.7785 68.3276C42.7785 67.7935 42.8978 67.3049 43.1365 66.8617C43.3779 66.4157 43.716 66.0606 44.1507 65.7964C44.5881 65.5322 45.1023 65.4043 45.6932 65.4128ZM45.6932 66.3503C45.3353 66.3503 45.0129 66.4398 44.7259 66.6188C44.4418 66.7949 44.216 67.0335 44.0484 67.3347C43.8836 67.633 43.8012 67.9639 43.8012 68.3276C43.8012 68.6912 43.8808 69.0222 44.0399 69.3204C44.2018 69.6159 44.422 69.8517 44.7004 70.0278C44.9816 70.2011 45.3012 70.2878 45.6592 70.2878C45.929 70.2878 46.1805 70.2352 46.4134 70.1301C46.6464 70.0221 46.8495 69.8758 47.0228 69.6912C47.1989 69.5037 47.3367 69.292 47.4361 69.0562C47.5355 68.8176 47.5853 68.569 47.5853 68.3105C47.5853 67.9696 47.5029 67.65 47.3381 67.3517C47.1762 67.0534 46.9517 66.812 46.6648 66.6273C46.3807 66.4427 46.0569 66.3503 45.6932 66.3503ZM53.2496 74.3786C52.6075 74.3786 52.0607 74.2039 51.609 73.8545C51.1573 73.5022 50.8121 72.9923 50.5735 72.3247C50.3349 71.6542 50.2155 70.8446 50.2155 69.8957C50.2155 68.9526 50.3349 68.1472 50.5735 67.4796C50.815 66.8091 51.1615 66.2978 51.6132 65.9455C52.0678 65.5904 52.6132 65.4128 53.2496 65.4128C53.8859 65.4128 54.43 65.5904 54.8817 65.9455C55.3362 66.2978 55.6828 66.8091 55.9214 67.4796C56.1629 68.1472 56.2836 68.9526 56.2836 69.8957C56.2836 70.8446 56.1643 71.6542 55.9257 72.3247C55.687 72.9923 55.3419 73.5022 54.8902 73.8545C54.4385 74.2039 53.8916 74.3786 53.2496 74.3786ZM53.2496 73.4411C53.8859 73.4411 54.3802 73.1343 54.7325 72.5207C55.0848 71.907 55.2609 71.0321 55.2609 69.8957C55.2609 69.14 55.1799 68.4966 55.018 67.9654C54.8589 67.4341 54.6288 67.0293 54.3277 66.7509C54.0294 66.4725 53.67 66.3333 53.2496 66.3333C52.6189 66.3333 52.126 66.6444 51.7709 67.2665C51.4158 67.8858 51.2382 68.7622 51.2382 69.8957C51.2382 70.6514 51.3178 71.2934 51.4769 71.8218C51.636 72.3502 51.8647 72.7522 52.1629 73.0278C52.4641 73.3033 52.8263 73.4411 53.2496 73.4411Z" fill="#6B7280"/>
<path d="M58.999 5.00024H64.999" stroke="#6B7280" stroke-width="0.999983"/>
<path d="M40.6276 7.53313V16.2603H39.5708V8.64107H39.5197L37.3891 10.0558V8.98197L39.5708 7.53313H40.6276ZM43.1375 16.2603V15.4932L46.0182 12.3399C46.3562 11.9706 46.6346 11.6495 46.8534 11.3768C47.0721 11.1013 47.2341 10.8427 47.3392 10.6013C47.4471 10.3569 47.5011 10.1013 47.5011 9.83423C47.5011 9.52742 47.4272 9.2618 47.2795 9.03737C47.1346 8.81294 46.9358 8.63965 46.6829 8.51749C46.4301 8.39533 46.146 8.33425 45.8307 8.33425C45.4954 8.33425 45.2028 8.40386 44.9528 8.54306C44.7057 8.67942 44.5139 8.87118 44.3776 9.11833C44.2441 9.36549 44.1773 9.65525 44.1773 9.98763H43.1716C43.1716 9.47628 43.2895 9.02742 43.5253 8.64107C43.7611 8.25471 44.0821 7.95358 44.4884 7.73767C44.8974 7.52177 45.3562 7.41382 45.8648 7.41382C46.3761 7.41382 46.8292 7.52177 47.2241 7.73767C47.619 7.95358 47.9286 8.24477 48.1531 8.61124C48.3775 8.97771 48.4897 9.38537 48.4897 9.83423C48.4897 10.1552 48.4315 10.4692 48.315 10.776C48.2014 11.0799 48.0025 11.4194 47.7184 11.7944C47.4372 12.1666 47.0466 12.6211 46.5466 13.158L44.5864 15.2546V15.3228H48.6431V16.2603H43.1375ZM53.2496 16.3796C52.6075 16.3796 52.0607 16.2049 51.609 15.8554C51.1573 15.5032 50.8121 14.9932 50.5735 14.3256C50.3349 13.6552 50.2155 12.8455 50.2155 11.8967C50.2155 10.9535 50.3349 10.1481 50.5735 9.48054C50.815 8.8101 51.1615 8.29874 51.6132 7.94648C52.0678 7.59137 52.6132 7.41382 53.2496 7.41382C53.8859 7.41382 54.43 7.59137 54.8817 7.94648C55.3362 8.29874 55.6828 8.8101 55.9214 9.48054C56.1629 10.1481 56.2836 10.9535 56.2836 11.8967C56.2836 12.8455 56.1643 13.6552 55.9257 14.3256C55.687 14.9932 55.3419 15.5032 54.8902 15.8554C54.4385 16.2049 53.8916 16.3796 53.2496 16.3796ZM53.2496 15.4421C53.8859 15.4421 54.3802 15.1353 54.7325 14.5216C55.0848 13.908 55.2609 13.033 55.2609 11.8967C55.2609 11.141 55.1799 10.4976 55.018 9.96633C54.8589 9.43509 54.6288 9.03027 54.3277 8.75186C54.0294 8.47346 53.67 8.33425 53.2496 8.33425C52.6189 8.33425 52.126 8.64533 51.7709 9.26748C51.4158 9.88678 51.2382 10.7632 51.2382 11.8967C51.2382 12.6524 51.3178 13.2944 51.4769 13.8228C51.636 14.3512 51.8647 14.7532 52.1629 15.0287C52.4641 15.3043 52.8263 15.4421 53.2496 15.4421Z" fill="#6B7280"/>
<path d="M64.999 167.498C93.3985 164.067 121.798 160.637 150.198 152.331C178.597 144.026 206.997 129.581 235.396 117.665C263.796 105.749 292.195 90.5819 320.595 80.8321C348.994 71.0822 377.394 68.1933 405.793 59.1664C434.193 50.1386 462.592 38.4028 490.992 26.667" stroke="#2F91F8" stroke-width="2.99995"/>
<path d="M64.999 173.498C68.3127 173.498 70.999 170.811 70.999 167.498C70.999 164.184 68.3127 161.498 64.999 161.498C61.6853 161.498 58.999 164.184 58.999 167.498C58.999 170.811 61.6853 173.498 64.999 173.498Z" fill="#2F91F8" stroke="#2F91F8" stroke-width="2.99995"/>
<path d="M150.198 158.331C153.511 158.331 156.198 155.645 156.198 152.331C156.198 149.018 153.511 146.331 150.198 146.331C146.884 146.331 144.198 149.018 144.198 152.331C144.198 155.645 146.884 158.331 150.198 158.331Z" fill="#2F91F8" stroke="#2F91F8" stroke-width="2.99995"/>
<path d="M235.396 123.665C238.71 123.665 241.396 120.979 241.396 117.665C241.396 114.352 238.71 111.665 235.396 111.665C232.082 111.665 229.396 114.352 229.396 117.665C229.396 120.979 232.082 123.665 235.396 123.665Z" fill="#2F91F8" stroke="#2F91F8" stroke-width="2.99995"/>
<path d="M320.595 86.8325C323.908 86.8325 326.595 84.1462 326.595 80.8325C326.595 77.5188 323.908 74.8325 320.595 74.8325C317.281 74.8325 314.595 77.5188 314.595 80.8325C314.595 84.1462 317.281 86.8325 320.595 86.8325Z" fill="#2F91F8" stroke="#2F91F8" stroke-width="2.99995"/>
<path d="M405.793 65.1663C409.107 65.1663 411.793 62.48 411.793 59.1663C411.793 55.8526 409.107 53.1663 405.793 53.1663C402.479 53.1663 399.793 55.8526 399.793 59.1663C399.793 62.48 402.479 65.1663 405.793 65.1663Z" fill="#2F91F8" stroke="#2F91F8" stroke-width="2.99995"/>
<path d="M490.992 32.6667C494.305 32.6667 496.992 29.9805 496.992 26.6667C496.992 23.353 494.305 20.6667 490.992 20.6667C487.678 20.6667 484.992 23.353 484.992 26.6667C484.992 29.9805 487.678 32.6667 490.992 32.6667Z" fill="#2F91F8" stroke="#2F91F8" stroke-width="2.99995"/>
</svg>
