<svg width="152" height="40" viewBox="0 0 152 40" fill="none" xmlns="http://www.w3.org/2000/svg">
<rect width="40" height="40" rx="20" fill="#2F91F8"/>
<rect width="40" height="40" rx="20" stroke="#E5E7EB"/>
<path d="M12.125 13.25C10.884 13.25 9.875 14.259 9.875 15.5V17.75C9.875 18.0594 10.1352 18.302 10.427 18.4039C11.0879 18.6324 11.5625 19.2617 11.5625 20C11.5625 20.7383 11.0879 21.3676 10.427 21.5961C10.1352 21.698 9.875 21.9406 9.875 22.25V24.5C9.875 25.741 10.884 26.75 12.125 26.75H27.875C29.116 26.75 30.125 25.741 30.125 24.5V22.25C30.125 21.9406 29.8648 21.698 29.573 21.5961C28.9121 21.3676 28.4375 20.7383 28.4375 20C28.4375 19.2617 28.9121 18.6324 29.573 18.4039C29.8648 18.302 30.125 18.0594 30.125 17.75V15.5C30.125 14.259 29.116 13.25 27.875 13.25H12.125ZM14.375 17.1875V22.8125C14.375 23.1219 14.6281 23.375 14.9375 23.375H25.0625C25.3719 23.375 25.625 23.1219 25.625 22.8125V17.1875C25.625 16.8781 25.3719 16.625 25.0625 16.625H14.9375C14.6281 16.625 14.375 16.8781 14.375 17.1875ZM13.25 16.625C13.25 16.0027 13.7527 15.5 14.375 15.5H25.625C26.2473 15.5 26.75 16.0027 26.75 16.625V23.375C26.75 23.9973 26.2473 24.5 25.625 24.5H14.375C13.7527 24.5 13.25 23.9973 13.25 23.375V16.625Z" fill="white"/>
<path d="M48.632 29V12.056H52.4V29H48.632ZM51.512 29V25.736H60.8V29H51.512ZM51.512 21.92V18.776H59.96V21.92H51.512ZM51.512 15.296V12.056H60.68V15.296H51.512ZM66.2336 29L61.2896 17.336H65.2496L68.6096 27.056H66.8816L70.2416 17.336H74.1296L69.1856 29H66.2336ZM80.3841 29.264C79.1201 29.264 77.9921 29.008 77.0001 28.496C76.0241 27.968 75.2561 27.24 74.6961 26.312C74.1361 25.384 73.8561 24.336 73.8561 23.168C73.8561 22 74.1281 20.96 74.6721 20.048C75.2321 19.12 75.9841 18.392 76.9281 17.864C77.8721 17.336 78.9361 17.072 80.1201 17.072C81.2721 17.072 82.2881 17.32 83.1681 17.816C84.0481 18.312 84.7361 19 85.2321 19.88C85.7441 20.76 86.0001 21.768 86.0001 22.904C86.0001 23.112 85.9841 23.336 85.9521 23.576C85.9361 23.8 85.8961 24.064 85.8321 24.368L75.7761 24.392V21.872L84.2721 21.848L82.6881 22.904C82.6721 22.232 82.5681 21.68 82.3761 21.248C82.1841 20.8 81.8961 20.464 81.5121 20.24C81.1441 20 80.6881 19.88 80.1441 19.88C79.5681 19.88 79.0641 20.016 78.6321 20.288C78.2161 20.544 77.8881 20.912 77.6481 21.392C77.4241 21.872 77.3121 22.456 77.3121 23.144C77.3121 23.832 77.4321 24.424 77.6721 24.92C77.9281 25.4 78.2801 25.776 78.7281 26.048C79.1921 26.304 79.7361 26.432 80.3601 26.432C80.9361 26.432 81.4561 26.336 81.9201 26.144C82.3841 25.936 82.7921 25.632 83.1441 25.232L85.1601 27.248C84.5841 27.92 83.8881 28.424 83.0721 28.76C82.2561 29.096 81.3601 29.264 80.3841 29.264ZM94.9766 29V22.352C94.9766 21.744 94.7846 21.256 94.4006 20.888C94.0326 20.504 93.5606 20.312 92.9846 20.312C92.5846 20.312 92.2326 20.4 91.9286 20.576C91.6246 20.736 91.3846 20.976 91.2086 21.296C91.0326 21.6 90.9446 21.952 90.9446 22.352L89.5286 21.656C89.5286 20.744 89.7286 19.944 90.1286 19.256C90.5286 18.568 91.0806 18.04 91.7846 17.672C92.5046 17.288 93.3126 17.096 94.2086 17.096C95.0726 17.096 95.8326 17.304 96.4886 17.72C97.1606 18.12 97.6886 18.656 98.0726 19.328C98.4566 20 98.6486 20.736 98.6486 21.536V29H94.9766ZM87.2726 29V17.336H90.9446V29H87.2726ZM102.022 29V12.512H105.694V29H102.022ZM99.3823 20.456V17.336H108.334V20.456H99.3823ZM109.788 29V12.056H113.556V29H109.788ZM120.276 29V12.056H124.068V29H120.276ZM112.044 21.92V18.656H121.524V21.92H112.044ZM131.668 29.264C130.596 29.264 129.644 29.048 128.812 28.616C127.996 28.168 127.356 27.56 126.892 26.792C126.428 26.008 126.196 25.112 126.196 24.104V17.336H129.868V24.056C129.868 24.456 129.932 24.8 130.06 25.088C130.204 25.376 130.412 25.6 130.684 25.76C130.956 25.92 131.284 26 131.668 26C132.212 26 132.644 25.832 132.964 25.496C133.284 25.144 133.444 24.664 133.444 24.056V17.336H137.116V24.08C137.116 25.104 136.884 26.008 136.42 26.792C135.956 27.56 135.316 28.168 134.5 28.616C133.684 29.048 132.74 29.264 131.668 29.264ZM145.641 29.24C144.857 29.24 144.137 29.08 143.481 28.76C142.825 28.424 142.289 27.984 141.873 27.44C141.457 26.88 141.217 26.256 141.153 25.568V20.648C141.217 19.96 141.457 19.352 141.873 18.824C142.289 18.28 142.825 17.856 143.481 17.552C144.137 17.248 144.857 17.096 145.641 17.096C146.745 17.096 147.721 17.36 148.569 17.888C149.433 18.416 150.105 19.136 150.585 20.048C151.081 20.96 151.329 22 151.329 23.168C151.329 24.336 151.081 25.376 150.585 26.288C150.105 27.2 149.433 27.92 148.569 28.448C147.721 28.976 146.745 29.24 145.641 29.24ZM138.921 29V11.576H142.593V20.192L141.993 23.024L142.545 25.856V29H138.921ZM144.993 25.928C145.505 25.928 145.953 25.808 146.337 25.568C146.737 25.328 147.049 25 147.273 24.584C147.497 24.168 147.609 23.696 147.609 23.168C147.609 22.624 147.497 22.144 147.273 21.728C147.049 21.312 146.737 20.992 146.337 20.768C145.953 20.528 145.505 20.408 144.993 20.408C144.481 20.408 144.025 20.528 143.625 20.768C143.225 20.992 142.913 21.312 142.689 21.728C142.481 22.144 142.377 22.624 142.377 23.168C142.377 23.712 142.489 24.192 142.713 24.608C142.937 25.024 143.241 25.352 143.625 25.592C144.025 25.816 144.481 25.928 144.993 25.928Z" fill="#111827"/>
</svg>
