<svg width="15" height="15" viewBox="0 0 15 15" fill="none" xmlns="http://www.w3.org/2000/svg">
<path d="M7.01663 0.863082C7.04585 0.804061 7.09097 0.75438 7.14692 0.719645C7.20287 0.68491 7.26742 0.666504 7.33327 0.666504C7.39913 0.666504 7.46367 0.68491 7.51962 0.719645C7.57557 0.75438 7.6207 0.804061 7.64991 0.863082L9.18977 3.98213C9.29121 4.18742 9.44095 4.36503 9.62614 4.49972C9.81133 4.6344 10.0264 4.72214 10.253 4.75539L13.6967 5.25935C13.7619 5.2688 13.8232 5.29632 13.8737 5.3388C13.9241 5.38128 13.9616 5.43703 13.982 5.49973C14.0024 5.56243 14.0048 5.62958 13.9891 5.6936C13.9733 5.75761 13.9399 5.81593 13.8927 5.86196L11.4022 8.28707C11.238 8.44712 11.1151 8.64469 11.0442 8.86277C10.9732 9.08085 10.9563 9.3129 10.9949 9.53895L11.5829 12.9653C11.5944 13.0305 11.5874 13.0977 11.5625 13.1591C11.5377 13.2205 11.4962 13.2737 11.4426 13.3126C11.389 13.3515 11.3256 13.3746 11.2595 13.3792C11.1934 13.3838 11.1274 13.3697 11.0689 13.3386L7.99054 11.7201C7.78771 11.6136 7.56204 11.5579 7.33294 11.5579C7.10384 11.5579 6.87817 11.6136 6.67533 11.7201L3.59761 13.3386C3.53917 13.3695 3.47322 13.3835 3.40726 13.3788C3.34131 13.3741 3.27799 13.351 3.22451 13.3121C3.17103 13.2732 3.12954 13.2201 3.10476 13.1588C3.07998 13.0975 3.0729 13.0304 3.08433 12.9653L3.67161 9.53962C3.7104 9.31346 3.69359 9.08126 3.62264 8.86305C3.55168 8.64483 3.4287 8.44716 3.26431 8.28707L0.773872 5.86262C0.726272 5.81665 0.692542 5.75823 0.676523 5.69402C0.660504 5.62981 0.66284 5.5624 0.683266 5.49945C0.703692 5.4365 0.741387 5.38056 0.792055 5.33799C0.842724 5.29543 0.904329 5.26794 0.969854 5.25868L4.41287 4.75539C4.63969 4.72239 4.85509 4.63477 5.04054 4.50007C5.22598 4.36537 5.37592 4.18762 5.47744 3.98213L7.01663 0.863082Z" stroke="#1A1A1A" stroke-width="1.33321" stroke-linecap="round" stroke-linejoin="round"/>
</svg>
