<svg width="48" height="48" viewBox="0 0 48 48" fill="none" xmlns="http://www.w3.org/2000/svg">
<path d="M0 16C0 7.16344 7.16344 0 16 0H31.9956C40.8322 0 47.9956 7.16344 47.9956 16V31.9956C47.9956 40.8322 40.8322 47.9956 31.9956 47.9956H16C7.16344 47.9956 0 40.8322 0 31.9956V16Z" fill="#2F91F8" fill-opacity="0.14"/>
<path d="M23.5181 14.2939C23.5619 14.2054 23.6296 14.1308 23.7135 14.0787C23.7975 14.0266 23.8943 13.999 23.9931 13.999C24.0919 13.999 24.1887 14.0266 24.2726 14.0787C24.3565 14.1308 24.4242 14.2054 24.468 14.2939L26.7778 18.9725C26.93 19.2804 27.1546 19.5468 27.4324 19.7488C27.7102 19.9509 28.0328 20.0825 28.3727 20.1324L33.5382 20.8883C33.6361 20.9025 33.728 20.9438 33.8037 21.0075C33.8793 21.0712 33.9356 21.1548 33.9662 21.2489C33.9968 21.3429 34.0004 21.4436 33.9767 21.5397C33.9531 21.6357 33.903 21.7232 33.8322 21.7922L30.0965 25.4299C29.8501 25.6699 29.6658 25.9663 29.5594 26.2934C29.453 26.6205 29.4276 26.9686 29.4856 27.3077L30.3675 32.4472C30.3848 32.5451 30.3742 32.6458 30.337 32.7379C30.2998 32.83 30.2374 32.9098 30.157 32.9682C30.0767 33.0266 29.9815 33.0612 29.8824 33.0681C29.7833 33.075 29.6842 33.0539 29.5966 33.0072L24.979 30.5794C24.6747 30.4196 24.3362 30.3362 23.9926 30.3362C23.6489 30.3362 23.3104 30.4196 23.0062 30.5794L18.3896 33.0072C18.3019 33.0536 18.203 33.0745 18.1041 33.0674C18.0051 33.0604 17.9101 33.0257 17.8299 32.9674C17.7497 32.9091 17.6875 32.8294 17.6503 32.7374C17.6131 32.6455 17.6025 32.5449 17.6197 32.4472L18.5006 27.3087C18.5588 26.9695 18.5336 26.6212 18.4271 26.2938C18.3207 25.9665 18.1362 25.67 17.8896 25.4299L14.154 21.7932C14.0826 21.7242 14.032 21.6366 14.0079 21.5403C13.9839 21.444 13.9874 21.3429 14.0181 21.2484C14.0487 21.154 14.1052 21.0701 14.1812 21.0063C14.2572 20.9424 14.3497 20.9012 14.4479 20.8873L19.6125 20.1324C19.9527 20.0829 20.2758 19.9514 20.554 19.7494C20.8321 19.5473 21.057 19.2807 21.2093 18.9725L23.5181 14.2939Z" stroke="#2F91F8" stroke-width="1.99982" stroke-linecap="round" stroke-linejoin="round"/>
</svg>
